<?xml version="1.0" standalone="no"?>
<!DOCTYPE svg PUBLIC "-//W3C//DTD SVG 20010904//EN"
 "http://www.w3.org/TR/2001/REC-SVG-20010904/DTD/svg10.dtd">
<svg version="1.0" xmlns="http://www.w3.org/2000/svg"
 width="523.000000pt" height="523.000000pt" viewBox="0 0 523.000000 523.000000"
 preserveAspectRatio="xMidYMid meet">
<metadata>
Created by potrace 1.11, written by Peter Selinger 2001-2013
</metadata>
<g transform="translate(0.000000,523.000000) scale(0.100000,-0.100000)"
fill="#000000" stroke="none">
<path d="M2738 4474 c-3 -3 -4 -18 -2 -33 4 -23 1 -28 -17 -27 -12 1 -24 -5
-26 -11 -3 -8 4 -13 15 -13 33 0 33 -13 1 -40 -22 -18 -32 -35 -33 -57 -1 -24
-6 -33 -24 -36 -12 -2 -25 0 -28 5 -3 5 -11 4 -19 -2 -9 -8 -15 -8 -20 0 -3 6
-12 7 -18 3 -7 -4 -21 -7 -32 -8 -13 0 -19 -6 -19 -17 1 -10 -2 -18 -7 -18 -5
0 -9 7 -9 15 0 17 -25 20 -35 5 -3 -5 -15 -10 -26 -10 -10 0 -19 -4 -19 -10 0
-5 -9 -10 -19 -10 -11 0 -21 -5 -23 -11 -2 -7 -36 -12 -88 -13 -82 -1 -85 -2
-83 -24 2 -12 -2 -22 -8 -22 -5 0 -8 4 -5 8 10 17 -11 34 -30 24 -11 -6 -27
-13 -36 -16 -9 -2 -15 -13 -14 -23 2 -10 1 -12 -1 -5 -6 17 -32 15 -39 -3 -4
-8 -10 -12 -15 -9 -15 9 -23 -27 -8 -37 9 -7 5 -8 -13 -3 -30 7 -39 -11 -17
-33 9 -9 7 -11 -8 -7 -28 8 -37 -10 -17 -31 16 -15 16 -16 -2 -13 -11 2 -20
-4 -22 -14 -2 -11 3 -18 12 -18 9 0 16 -4 16 -10 0 -5 -9 -10 -21 -10 -14 0
-19 -5 -17 -17 2 -10 11 -17 19 -15 8 1 3 -6 -11 -17 l-25 -20 25 -10 c18 -7
20 -10 8 -10 -26 -1 -22 -37 5 -46 19 -6 20 -8 4 -12 -21 -6 -19 -37 3 -39 31
-2 33 -4 15 -17 -25 -19 -11 -41 16 -26 18 9 19 8 7 -10 -16 -26 -3 -39 22
-23 16 10 20 10 20 -2 0 -23 17 -28 34 -10 15 14 20 11 17 -9 -1 -5 9 -23 21
-40 13 -18 22 -37 20 -44 -1 -6 11 -21 28 -33 17 -12 30 -30 30 -42 0 -17 5
-20 29 -16 17 2 29 2 27 -1 -16 -37 -42 -81 -48 -81 -5 0 -17 -9 -28 -20 -16
-16 -20 -17 -20 -5 0 20 -29 19 -37 -1 -3 -9 0 -20 8 -25 11 -8 10 -9 -5 -7
-32 5 -30 -21 3 -39 36 -21 40 -58 6 -58 -15 0 -24 11 -34 44 -12 37 -16 42
-25 29 -9 -12 -16 -14 -30 -6 -21 12 -38 -5 -29 -29 3 -7 0 -13 -6 -13 -24 0
-9 -27 24 -43 36 -17 44 -37 22 -55 -17 -15 -31 -4 -52 40 -17 37 -35 42 -35
10 0 -12 -3 -13 -12 -4 -7 7 -18 12 -25 12 -17 0 -17 -40 0 -40 6 -1 1 -7 -13
-15 l-25 -13 47 -21 c43 -18 55 -37 36 -57 -10 -9 -48 6 -48 19 0 7 -8 21 -16
32 -13 18 -17 18 -27 5 -7 -9 -19 -14 -29 -12 -22 4 -32 -14 -15 -29 11 -10 9
-17 -10 -37 -13 -14 -23 -31 -23 -38 0 -8 -6 -11 -15 -8 -26 10 -38 -6 -19
-27 10 -11 12 -19 6 -19 -7 0 -12 -7 -12 -15 0 -10 10 -15 33 -15 51 0 80 -42
36 -53 -14 -4 -28 3 -46 24 -31 34 -43 37 -43 9 0 -13 -5 -18 -15 -14 -19 8
-33 -25 -15 -36 11 -7 11 -11 1 -24 -15 -18 -15 -18 49 -20 28 -1 36 -5 38
-24 5 -34 -23 -38 -59 -8 l-31 26 -26 -22 c-15 -13 -42 -40 -61 -60 -30 -35
-31 -38 -12 -38 11 0 21 3 21 8 0 4 7 15 15 25 10 15 18 17 32 8 10 -6 13 -11
7 -11 -15 0 -23 -44 -12 -63 6 -12 4 -14 -11 -10 -26 7 -38 -17 -17 -32 9 -7
14 -19 10 -29 -5 -12 0 -16 17 -16 13 0 31 4 38 9 19 12 51 -4 51 -25 0 -23
-22 -26 -63 -9 -47 19 -50 19 -44 -5 3 -12 0 -20 -8 -20 -14 0 -27 -25 -18
-34 4 -3 16 -6 27 -7 12 0 15 -3 9 -6 -15 -6 -17 -33 -3 -33 5 0 25 8 45 17
28 13 38 14 47 5 9 -9 10 -17 1 -30 -10 -17 -18 -17 -76 -6 -26 5 -27 4 -18
-14 9 -16 7 -21 -9 -25 -25 -6 -26 -25 -3 -35 10 -4 19 -11 19 -17 1 -5 5 -25
9 -42 4 -21 3 -33 -4 -33 -6 0 -11 -7 -11 -15 0 -14 12 -20 34 -16 5 1 6 -5 3
-13 -10 -25 13 -30 36 -8 12 11 31 22 42 24 16 2 20 -3 20 -22 0 -26 2 -25
-79 -29 -15 -1 -16 -3 -6 -16 10 -12 10 -19 2 -27 -19 -19 -14 -41 7 -35 16 4
21 -2 26 -25 4 -16 13 -32 21 -35 13 -5 13 -8 -1 -23 -17 -18 -11 -30 16 -30
10 0 23 -13 31 -30 7 -16 20 -30 28 -30 9 0 11 -3 4 -8 -6 -4 -13 -15 -17 -25
-6 -15 -3 -18 16 -15 12 2 28 -4 35 -12 11 -13 14 -13 25 4 35 54 44 61 61 47
22 -18 8 -39 -40 -61 -38 -17 -39 -18 -15 -27 16 -6 20 -12 13 -17 -7 -4 -12
-14 -12 -22 0 -17 36 -19 43 -1 3 7 6 6 6 -5 2 -33 22 -29 37 9 19 44 33 56
51 41 22 -18 14 -38 -22 -55 -36 -17 -47 -43 -19 -43 12 0 14 -3 6 -13 -15
-18 3 -46 19 -30 9 9 19 7 42 -13 16 -14 36 -23 43 -20 11 4 11 2 2 -14 -15
-24 -3 -38 20 -23 13 8 21 6 32 -6 13 -14 16 -10 26 34 8 39 14 50 30 50 30 0
30 -39 0 -59 -32 -20 -35 -51 -5 -43 17 5 18 3 8 -9 -17 -21 5 -43 28 -28 12
8 25 7 45 -3 15 -8 32 -12 38 -8 6 4 10 -5 10 -19 0 -29 12 -33 34 -11 9 10
17 11 21 5 13 -21 25 2 19 36 -6 39 9 66 32 57 15 -5 20 -53 6 -53 -5 0 -14
-12 -21 -26 -11 -25 -10 -26 13 -22 15 3 23 1 20 -6 -6 -17 12 -40 25 -32 6 4
11 14 11 23 0 11 4 13 13 6 6 -6 26 -10 44 -9 23 1 33 -4 37 -16 6 -24 27 -23
33 1 3 13 11 17 24 14 23 -6 25 14 5 42 -9 14 -11 27 -5 43 7 20 12 21 30 12
15 -9 19 -17 14 -33 -17 -55 -17 -67 -2 -67 8 0 18 6 20 13 3 6 6 2 6 -10 1
-16 7 -23 21 -23 11 0 20 6 20 14 0 20 81 27 96 8 8 -12 12 -12 23 2 7 8 10
20 6 25 -3 6 0 8 8 5 26 -9 29 14 6 45 -23 31 -20 61 5 61 22 0 30 -19 27 -62
-2 -40 11 -50 28 -21 9 16 10 16 11 2 0 -22 29 -33 36 -14 3 8 2 20 -2 26 -5
8 -2 10 8 7 8 -4 28 2 44 11 26 16 31 16 43 3 12 -12 15 -12 23 2 5 9 6 21 3
26 -3 6 0 10 8 10 8 0 25 9 39 20 18 13 28 16 36 8 15 -15 35 1 29 23 -3 12 0
19 9 19 24 0 15 20 -16 38 -35 20 -45 39 -29 58 17 20 38 5 50 -37 13 -41 26
-50 35 -24 5 11 11 12 25 4 15 -7 21 -6 25 5 3 8 3 20 -1 26 -3 5 1 13 9 16
22 8 10 23 -30 40 -35 15 -47 47 -21 57 19 7 31 -3 48 -37 16 -33 39 -46 39
-21 0 13 4 14 20 5 16 -9 22 -8 26 5 4 8 1 22 -6 30 -10 12 -9 15 4 15 9 0 16
3 16 6 0 11 -34 33 -52 34 -18 0 -42 33 -31 44 15 15 45 4 61 -24 18 -31 42
-40 42 -15 0 8 6 12 15 9 22 -9 37 5 26 24 -7 12 -3 25 11 45 11 15 17 35 14
44 -5 13 -4 14 8 4 8 -7 20 -10 26 -6 16 10 12 35 -6 35 -14 0 -14 2 1 16 21
21 3 36 -36 29 -30 -5 -55 16 -45 40 8 22 29 18 60 -10 32 -30 50 -32 43 -6
-3 14 0 17 13 14 25 -7 37 17 17 32 -12 9 -13 15 -5 23 17 17 6 23 -43 25 -37
2 -44 5 -44 22 0 28 30 30 61 6 34 -26 48 -27 41 -1 -4 15 0 20 14 20 23 0 26
28 4 36 -11 5 -13 10 -5 19 6 8 7 16 2 19 -10 6 -51 0 -60 -8 -8 -9 -42 14
-42 28 0 22 29 27 60 11 37 -19 54 -19 46 0 -3 8 -2 15 2 15 4 0 13 4 21 9 13
8 13 12 0 27 -19 23 -22 94 -3 101 29 11 13 40 -19 34 -5 -1 -6 8 -2 19 8 24
-12 27 -41 5 -25 -19 -53 -19 -61 1 -10 26 11 35 65 28 48 -6 53 -10 89 -62
21 -30 49 -59 63 -63 21 -8 23 -7 8 3 -9 7 -25 18 -35 25 -16 10 -15 11 7 6
19 -5 10 8 -41 59 -61 60 -65 66 -47 77 21 13 15 31 -10 31 -12 0 -18 10 -19
32 -1 17 -8 35 -14 39 -8 4 -6 10 6 17 25 13 12 46 -14 37 -16 -5 -18 -2 -14
15 7 27 -9 25 -37 -5 -28 -30 -65 -30 -65 0 0 14 8 21 25 23 14 1 36 5 50 8
23 5 24 7 7 19 -15 11 -16 13 -2 19 8 3 15 12 15 21 0 15 -11 19 -39 16 -7 -2
-10 2 -6 8 3 6 -3 24 -14 40 -14 20 -17 31 -9 39 15 15 -1 35 -23 29 -12 -3
-19 0 -19 9 0 23 -13 16 -46 -23 -27 -32 -34 -36 -48 -24 -19 16 -5 51 22 51
10 0 27 6 38 14 17 13 18 15 2 21 -14 6 -15 10 -5 26 6 10 17 19 24 19 7 0 13
8 13 18 0 14 -2 15 -10 2 -9 -13 -10 -13 -10 0 0 13 -1 13 -10 0 -7 -11 -12
-12 -21 -3 -32 32 23 78 106 88 47 6 49 5 30 -9 -19 -15 -19 -16 8 -6 31 11
67 -1 67 -23 0 -7 4 -6 10 3 7 11 10 11 10 2 0 -7 5 -10 10 -7 6 3 10 2 10 -3
0 -5 -18 -15 -39 -22 -38 -12 -60 -43 -40 -56 5 -3 9 4 9 15 0 20 28 31 91 35
37 3 93 -49 69 -64 -9 -6 -10 -10 -3 -10 7 0 24 -11 39 -25 15 -14 23 -25 19
-25 -4 0 0 -9 10 -20 10 -11 15 -20 11 -20 -4 0 0 -10 8 -21 8 -12 12 -28 9
-37 -5 -11 -3 -13 7 -7 10 6 12 4 7 -9 -4 -9 0 -35 7 -56 8 -22 10 -42 6 -45
-4 -3 -13 16 -20 41 -7 25 -27 64 -44 87 -17 23 -31 46 -31 51 0 5 -7 11 -15
13 -13 4 -13 3 0 -7 13 -10 12 -11 -3 -6 -10 3 -21 6 -23 6 -3 0 -2 5 1 10 4
6 3 10 -2 9 -4 -1 -10 0 -13 1 -3 1 -21 4 -40 5 -53 5 -99 -12 -106 -40 -7
-28 3 -65 18 -65 7 0 6 5 -2 15 -13 15 -5 55 14 67 20 14 69 8 113 -13 36 -17
43 -25 38 -43 -2 -11 -2 -15 1 -8 9 18 24 15 17 -5 -5 -12 -3 -14 8 -8 11 7
11 5 -1 -10 -8 -10 -10 -16 -4 -12 6 4 19 -2 28 -12 18 -20 49 -108 42 -120
-2 -3 2 -35 10 -71 12 -59 19 -159 10 -149 -2 2 -6 24 -9 49 -15 126 -45 199
-102 248 -48 43 -112 41 -129 -4 -7 -18 10 -44 28 -44 6 0 4 5 -4 10 -21 13
-1 44 33 48 57 7 143 -112 131 -183 -4 -25 0 -44 11 -61 9 -13 13 -29 9 -35
-4 -6 -2 -14 5 -18 6 -4 13 -29 16 -57 6 -49 6 -49 -10 -21 -9 15 -21 27 -27
27 -7 0 -6 -5 2 -15 7 -8 9 -15 5 -15 -4 0 -1 -7 6 -17 8 -9 12 -17 9 -19 -3
-1 -1 -6 4 -11 5 -5 6 -3 2 5 -4 6 -5 12 -2 12 3 0 10 -9 16 -20 17 -32 2 -42
-29 -19 -22 16 -32 18 -54 10 -15 -6 -27 -16 -26 -23 0 -10 2 -10 6 0 8 19 58
14 89 -10 16 -12 30 -22 31 -22 1 -1 5 -15 8 -31 l7 -30 -32 35 -32 35 24 -34
c13 -18 30 -43 38 -55 11 -15 -1 -10 -38 17 -28 20 -55 37 -58 37 -9 0 18 -24
50 -45 16 -11 24 -21 17 -23 -6 -2 -11 -8 -11 -13 0 -4 6 -6 13 -4 17 7 29 -4
55 -46 23 -38 21 -51 -6 -42 -18 7 -17 5 12 -17 16 -12 18 -12 11 -1 -5 10 -4
12 4 7 9 -6 9 -11 -1 -24 -7 -9 -8 -14 -3 -11 6 2 26 -11 45 -30 32 -31 33
-33 10 -26 -14 4 -29 11 -35 16 -14 14 -25 11 -25 -7 0 -8 4 -13 10 -9 5 3 25
-1 45 -9 19 -8 37 -14 38 -13 7 5 55 -41 49 -47 -3 -4 2 -4 13 -1 20 7 20 6 0
-10 -20 -17 -19 -17 8 -12 15 2 30 0 34 -6 3 -6 1 -7 -5 -3 -7 4 -12 3 -12 -1
0 -5 41 -15 90 -22 50 -7 90 -17 90 -22 0 -5 7 -9 16 -9 14 0 14 2 0 15 -8 8
-23 15 -33 15 -31 0 -63 12 -57 21 3 5 -2 6 -11 3 -47 -19 -208 108 -242 192
-10 24 -20 44 -23 44 -3 0 -5 18 -4 40 0 23 -4 44 -9 47 -6 3 -7 1 -3 -5 4 -7
2 -12 -3 -12 -13 0 -15 21 -12 108 1 42 -2 61 -9 57 -5 -3 -10 -1 -10 4 0 6 5
11 10 11 6 0 10 9 10 20 0 11 -4 20 -10 20 -5 0 -10 5 -10 11 0 5 4 7 10 4 9
-6 11 -1 30 88 13 60 35 115 58 142 17 20 17 20 -5 1 -26 -22 -58 -101 -68
-169 -11 -70 -26 -57 -18 16 3 34 6 74 7 89 0 14 5 26 10 25 5 -1 11 11 12 28
2 21 0 25 -6 15 -5 -8 -6 -18 -4 -22 3 -4 1 -8 -5 -8 -5 0 -11 17 -13 37 -3
32 3 43 34 75 21 21 43 38 49 38 7 0 9 3 6 6 -4 4 -18 -1 -32 -10 -30 -19 -30
-19 -9 23 9 18 14 34 12 36 -2 3 -15 -20 -29 -50 -27 -62 -44 -72 -36 -20 4
22 2 33 -4 29 -6 -3 -8 5 -5 20 3 14 0 28 -5 31 -5 4 -9 13 -9 21 0 9 5 12 12
8 7 -4 8 -3 4 5 -4 6 -11 9 -16 6 -5 -3 -19 22 -31 55 -12 33 -25 57 -30 54
-5 -3 -9 2 -9 11 0 10 5 13 12 9 7 -5 8 -3 4 5 -5 7 -10 10 -14 7 -9 -9 -53
45 -46 56 4 7 2 8 -4 4 -6 -4 -17 2 -23 13 -7 11 -19 17 -27 13 -10 -3 -13 -1
-8 6 4 7 2 12 -3 12 -22 0 -26 2 -34 16 -6 10 -16 13 -29 8 -13 -4 -18 -2 -14
4 4 7 -6 9 -30 5 -27 -4 -35 -3 -30 5 10 16 -7 15 -23 0 -11 -10 -12 -10 -7
-1 5 9 -4 9 -33 -2 -89 -31 -114 -55 -105 -100 l7 -30 -28 33 c-15 18 -32 29
-38 26 -8 -5 -7 -2 1 7 21 23 15 42 -13 37 -14 -3 -25 -2 -25 1 0 3 -13 15
-29 25 -16 11 -27 25 -24 32 8 21 -6 35 -25 25 -26 -14 -50 8 -41 39 7 24 7
24 8 3 1 -31 19 -29 33 2 9 20 9 28 -1 38 -9 9 -14 9 -22 -3 -8 -12 -9 -9 -5
10 3 14 6 28 6 33 0 4 12 7 26 7 19 0 25 4 21 15 -4 8 6 24 23 39 17 14 30 31
30 38 0 10 34 86 48 108 2 3 8 -3 13 -12 11 -20 39 -13 39 11 0 13 2 13 9 2 5
-8 16 -11 25 -8 14 6 15 10 5 29 -11 20 -10 21 3 10 12 -10 18 -9 28 3 10 12
9 16 -4 21 -23 9 -20 27 3 19 26 -8 39 15 18 30 -23 16 -21 25 3 25 25 0 26
25 3 39 -17 10 -17 10 0 11 9 0 17 7 17 15 0 8 -7 15 -15 15 -8 0 -15 4 -15
10 0 5 5 9 12 7 6 -1 14 6 16 16 2 12 -3 17 -17 17 -25 0 -28 15 -5 24 13 5
14 9 5 20 -7 8 -11 23 -9 33 2 13 -3 18 -19 17 -13 0 -23 3 -23 8 0 4 5 8 10
8 6 0 10 7 10 16 0 12 -7 15 -25 12 -21 -4 -23 -3 -13 9 15 18 -10 37 -28 22
-9 -8 -11 -5 -7 10 4 16 1 21 -16 21 -11 0 -21 5 -21 10 0 16 -22 12 -35 -6
-10 -15 -12 -14 -11 7 1 15 -4 23 -12 21 -7 -1 -22 3 -34 9 -16 9 -22 8 -29
-2 -6 -9 -9 -10 -9 -2 0 8 -18 11 -55 8 -43 -2 -61 2 -80 17 -14 11 -25 16
-25 13 0 -4 -7 -2 -15 5 -18 15 -49 5 -39 -11 4 -7 3 -9 -4 -6 -5 4 -8 17 -4
29 4 18 2 20 -16 16 -12 -4 -25 -2 -28 4 -3 5 -15 8 -25 5 -10 -3 -22 -1 -25
4 -3 5 -11 6 -17 2 -6 -4 -30 -7 -52 -8 -29 0 -40 -4 -40 -15 0 -16 -14 -30
-29 -30 -5 0 -3 6 3 14 26 31 30 73 10 105 -10 17 -26 31 -34 31 -8 0 -15 7
-15 15 0 8 3 14 8 14 20 -3 32 2 32 15 0 8 -8 13 -17 12 -13 -1 -19 8 -21 32
-3 30 -11 39 -24 26z m-48 -244 c9 -16 8 -18 -5 -14 -8 4 -15 12 -15 20 0 20
7 17 20 -6z m260 0 c0 -5 -8 -10 -17 -10 -15 0 -16 2 -3 10 19 12 20 12 20 0z
m-182 -60 c3 -8 0 -10 -8 -5 -8 5 -18 1 -27 -10 -16 -22 -17 -12 -2 16 11 22
30 21 37 -1z m-52 -18 c-4 -25 -1 -27 30 -28 34 0 38 4 34 40 -2 18 3 19 75
13 100 -9 149 -24 181 -56 38 -38 56 -78 61 -141 5 -47 1 -64 -21 -107 -14
-29 -35 -58 -46 -66 -16 -11 -19 -21 -14 -41 4 -18 2 -26 -6 -26 -9 0 -11 -12
-7 -44 l6 -45 -35 15 c-31 13 -36 13 -51 -2 -15 -14 -17 -14 -25 0 -14 26 -28
9 -28 -34 0 -39 -25 -70 -57 -70 -23 0 -53 39 -53 70 0 32 11 37 53 21 19 -7
28 -5 42 11 16 20 16 22 1 33 -8 7 -13 15 -9 18 10 11 -40 8 -57 -2 -8 -6 -17
-8 -21 -5 -9 5 11 62 35 97 17 25 18 34 6 100 -6 40 -14 99 -17 132 -6 72 -13
85 -13 26 0 -39 -1 -41 -16 -26 -12 12 -19 13 -30 4 -12 -9 -14 -4 -15 32 -1
26 -9 -9 -20 -86 -10 -71 -21 -135 -23 -142 -3 -6 3 -22 13 -35 10 -13 21 -33
25 -45 18 -67 20 -62 -18 -51 -29 9 -37 8 -54 -8 -18 -17 -19 -21 -7 -38 13
-17 35 -19 84 -5 8 2 17 -4 19 -14 13 -61 -41 -104 -87 -69 -20 15 -26 28 -26
57 0 24 -5 40 -14 43 -11 4 -13 -4 -8 -37 9 -73 -56 -113 -105 -63 -26 25 -16
45 16 32 50 -19 96 22 62 55 -18 19 -24 19 -59 0 l-28 -14 4 45 c3 32 0 47 -9
51 -10 4 -11 10 -4 23 7 13 4 22 -11 36 -70 64 -90 169 -48 258 36 78 109 111
251 115 46 1 47 0 44 -27z m-551 -12 c3 -5 1 -10 -4 -10 -6 0 -11 5 -11 10 0
6 2 10 4 10 3 0 8 -4 11 -10z m139 -61 c14 -14 16 -18 5 -14 -24 9 -36 -15
-16 -30 18 -13 24 -31 8 -21 -5 4 -16 3 -24 0 -20 -7 -10 -34 12 -35 11 0 9
-3 -6 -9 -35 -14 -27 -37 10 -31 17 3 5 -17 -13 -22 -24 -6 -17 -39 8 -35 8 2
17 -3 20 -11 2 -8 0 -11 -6 -8 -5 4 -15 0 -21 -7 -14 -17 2 -31 24 -22 17 6
21 -9 5 -19 -5 -3 -10 -13 -10 -22 0 -11 7 -14 28 -9 15 3 21 3 15 0 -18 -8
-16 -44 2 -44 7 0 19 8 24 18 9 15 10 15 11 -5 0 -16 6 -23 20 -23 11 0 20 5
20 10 0 6 3 10 8 10 4 0 7 -12 7 -27 1 -16 4 -38 9 -51 7 -22 6 -23 -33 -17
-32 5 -41 3 -41 -9 0 -8 -6 -16 -12 -19 -10 -3 -8 -10 6 -25 17 -20 20 -20 57
-5 46 18 50 16 38 -15 -12 -32 -52 -48 -84 -34 -26 12 -29 17 -39 64 -6 24
-10 27 -36 21 -20 -4 -30 -2 -30 7 0 7 -14 1 -34 -14 -38 -28 -35 -30 -50 37
-4 18 -11 25 -19 20 -7 -4 -6 0 2 10 13 16 11 22 -16 50 -61 64 -78 129 -54
214 15 53 55 101 102 122 51 23 78 23 103 0z m961 10 c60 -17 95 -46 121 -103
39 -84 28 -165 -33 -236 -19 -22 -32 -44 -29 -49 3 -5 -1 -11 -9 -15 -10 -3
-15 -19 -15 -46 l0 -40 -27 17 c-15 10 -46 19 -70 19 -41 1 -43 0 -43 -27 0
-66 -74 -90 -113 -37 -27 36 -16 45 28 24 33 -16 36 -16 56 3 21 19 21 20 2
40 -14 15 -27 19 -55 16 l-36 -5 14 41 c8 22 12 44 9 49 -3 5 -1 11 5 15 5 3
10 -1 10 -9 0 -26 40 -20 41 7 1 16 2 18 6 5 5 -20 28 -24 38 -8 4 6 2 17 -4
24 -9 11 -6 12 14 8 28 -5 33 9 10 28 -19 16 -10 30 15 23 24 -6 29 24 5 33
-8 4 -15 11 -15 16 0 6 6 8 14 5 8 -3 20 1 26 8 10 12 8 16 -10 23 -20 7 -21
10 -7 15 22 8 22 37 0 38 -13 0 -12 3 6 10 19 8 21 12 11 24 -10 12 -16 13
-26 4 -11 -9 -14 -8 -14 1 0 7 7 18 17 25 18 14 8 39 -13 31 -7 -3 -16 0 -20
6 -4 6 -3 8 3 5 6 -4 16 0 23 8 15 18 14 18 65 4z m-515 -99 c11 0 20 5 20 10
0 6 5 10 11 10 5 0 8 -3 6 -7 -3 -5 0 -43 7 -85 10 -63 10 -81 -1 -103 -8 -14
-18 -23 -24 -20 -5 4 -3 13 6 22 33 32 -5 91 -42 67 -21 -13 -29 -52 -14 -67
6 -6 11 -16 11 -21 -1 -6 -9 -1 -20 12 -10 12 -17 30 -15 40 1 9 6 53 10 96 5
56 10 74 17 62 5 -9 18 -16 28 -16z m227 -383 c44 6 45 6 34 -16 -14 -25 -47
-40 -72 -34 -31 8 -51 39 -43 65 l7 23 14 -22 c13 -19 21 -22 60 -16z m-671
-62 c-19 -29 -66 -34 -86 -10 -15 18 -11 24 19 30 38 7 61 16 60 23 -4 26 4
32 13 9 8 -21 6 -33 -6 -52z m898 40 c3 -8 18 -15 33 -15 42 0 60 -14 44 -34
-29 -34 -101 -6 -101 40 0 27 15 32 24 9z m9 -102 c-7 -2 -19 -2 -25 0 -7 3
-2 5 12 5 14 0 19 -2 13 -5z m-190 -10 c-7 -2 -13 -12 -13 -21 0 -14 -2 -15
-9 -2 -12 18 -5 30 17 29 11 0 12 -3 5 -6z m-523 -60 c0 -15 -36 -17 -45 -3
-3 5 -3 21 1 36 l7 27 18 -24 c10 -13 19 -30 19 -36z m235 36 c8 -23 1 -34
-14 -24 -13 8 -15 45 -2 45 5 0 13 -9 16 -21z m31 -27 c-14 -15 -15 -13 -3 17
8 23 13 28 15 16 2 -10 -3 -25 -12 -33z m-418 31 c0 -5 2 -16 6 -25 5 -10 5
-26 0 -35 -6 -14 -9 -11 -12 15 -2 17 -8 32 -13 32 -6 0 -7 5 -4 10 7 12 26
14 23 3z m270 -17 c3 -12 -1 -17 -10 -14 -7 3 -15 13 -16 22 -3 12 1 17 10 14
7 -3 15 -13 16 -22z m563 3 c12 -23 -3 -51 -15 -30 -4 6 -17 11 -28 11 -20 0
-21 1 -3 20 23 25 32 25 46 -1z m-290 -12 c-10 -9 -11 -8 -5 6 3 10 9 15 12
12 3 -3 0 -11 -7 -18z m-625 -85 c-15 -3 -21 -15 -16 -37 1 -6 -3 -5 -10 1 -6
6 -13 27 -15 47 l-3 36 30 -22 c22 -16 26 -23 14 -25z m622 4 c54 -3 107 -12
127 -22 19 -8 43 -13 54 -9 10 3 22 1 26 -4 4 -7 -1 -9 -12 -5 -16 5 -15 3 2
-11 19 -15 20 -15 27 7 6 22 6 21 7 -4 1 -17 9 -32 22 -38 17 -10 28 -7 60 15
35 23 39 24 30 6 -15 -27 -14 -76 2 -90 11 -8 25 -5 58 12 l44 22 -19 -39
c-21 -42 -14 -68 20 -74 10 -2 24 -8 29 -14 6 -6 3 -7 -9 -2 -16 6 -17 5 -7
-14 7 -12 15 -22 18 -22 3 0 4 3 0 6 -3 4 1 13 9 22 10 9 12 17 5 21 -5 3 2
11 15 18 l25 11 -21 -34 c-30 -48 -24 -78 17 -82 18 -2 42 2 54 9 l22 11 -20
-28 c-47 -67 -34 -101 37 -91 l40 5 -30 -34 c-34 -39 -36 -47 -16 -64 8 -6 13
-17 10 -25 -3 -7 0 -16 5 -20 6 -3 8 -11 5 -17 -4 -7 -2 -8 5 -4 8 6 10 1 6
-17 -8 -30 16 -47 67 -47 l33 0 -30 -18 c-70 -43 -70 -78 1 -98 38 -11 38 -11
15 -23 -17 -10 -26 -10 -35 -1 -8 8 -6 9 9 4 14 -5 17 -4 10 3 -5 6 -21 14
-35 18 -14 3 -20 3 -15 -2 12 -9 12 -149 0 -176 -4 -11 -3 -23 4 -30 15 -15
14 -30 -1 -21 -9 5 -9 2 1 -9 7 -9 21 -17 30 -17 14 0 14 2 1 10 -8 5 -10 10
-5 10 6 -1 19 -7 29 -15 19 -14 19 -15 -7 -15 -40 0 -75 -20 -80 -46 -2 -13
-1 -22 2 -20 3 2 20 -8 38 -23 l31 -26 -39 -1 c-22 0 -47 -8 -56 -17 -15 -14
-15 -18 2 -44 10 -15 26 -33 34 -40 9 -7 11 -13 5 -13 -6 0 -14 3 -17 7 -9 8
-66 10 -61 1 2 -3 1 -8 -4 -10 -15 -6 -54 -81 -39 -75 8 3 20 0 27 -6 10 -10
10 -7 1 11 -16 31 -6 28 18 -7 l20 -28 -39 10 c-29 8 -42 8 -54 -2 -21 -18
-20 -37 5 -78 l22 -35 -31 16 c-39 20 -66 20 -82 1 -12 -14 -10 -26 16 -89 7
-17 4 -17 -23 3 -41 31 -77 25 -81 -12 -2 -16 1 -42 7 -58 12 -36 11 -36 -20
-2 -13 14 -18 23 -11 19 8 -5 12 1 12 19 0 15 -4 24 -10 20 -6 -4 -8 -11 -5
-16 3 -5 -2 -6 -11 -2 -13 5 -15 3 -9 -7 6 -10 4 -12 -8 -7 -29 11 -50 -22
-43 -69 l5 -42 -27 26 c-16 15 -26 31 -24 35 2 5 10 0 18 -10 12 -17 13 -16
14 12 0 20 -3 26 -9 17 -4 -8 -12 -14 -17 -14 -5 0 -16 -3 -24 -5 -8 -3 -21
-7 -27 -9 -13 -3 -17 -26 -14 -79 l2 -30 -18 25 c-9 14 -24 31 -33 38 -13 11
-12 12 6 3 23 -11 34 -6 34 16 0 8 -5 11 -11 8 -5 -4 -25 -9 -42 -12 -42 -6
-48 -13 -54 -61 l-6 -41 -22 32 c-24 35 -24 52 1 21 14 -17 15 -17 10 -1 -3
11 -2 16 4 12 6 -3 10 1 10 10 0 10 -4 13 -12 8 -7 -4 -25 -8 -39 -8 -38 -1
-58 -22 -66 -69 l-6 -41 -12 35 c-12 35 -3 66 16 54 5 -3 9 0 9 6 0 8 -6 9
-17 4 -10 -4 -32 -7 -50 -6 -35 2 -62 -25 -64 -63 0 -13 -6 -6 -19 21 -29 66
-68 66 -96 -1 l-12 -29 -11 41 c-13 47 -23 56 -66 61 -16 1 -36 3 -42 4 -7 1
-13 5 -13 9 0 4 -14 12 -30 18 -17 5 -29 7 -26 3 3 -5 -8 -20 -24 -35 l-29
-28 6 33 c3 24 -1 40 -14 56 -17 21 -20 21 -45 8 -16 -8 -28 -11 -28 -5 0 5 5
9 11 9 5 0 8 4 4 10 -3 5 -13 7 -23 4 -14 -5 -14 -4 -2 4 12 9 11 14 -9 31
-29 26 -28 26 -69 1 -42 -26 -42 -26 -29 10 11 28 37 42 37 19 0 -5 -4 -7 -10
-4 -5 3 -10 1 -10 -4 0 -13 3 -13 24 -5 14 5 11 12 -16 38 -46 44 -65 50 -90
26 -28 -26 -42 -26 -28 0 6 11 14 19 18 16 4 -2 14 1 23 8 15 10 15 13 1 26
-14 13 -15 12 -9 -3 3 -9 2 -17 -3 -17 -6 0 -10 11 -10 25 0 32 -22 41 -71 28
-35 -9 -37 -9 -28 8 5 10 14 21 19 24 14 8 13 41 -2 64 -11 17 -15 18 -56 6
l-45 -14 29 32 c16 18 30 33 30 35 1 2 4 -4 8 -13 3 -9 2 -13 -3 -10 -5 3 -12
1 -16 -5 -7 -11 18 -14 28 -4 3 4 -3 24 -14 46 -20 38 -22 40 -64 36 l-44 -3
29 30 c31 32 38 59 20 70 -6 4 -8 11 -4 16 3 5 2 15 -3 22 -5 7 -10 25 -12 42
-2 16 -10 35 -19 43 -10 7 -12 11 -6 8 8 -4 11 13 9 57 -2 50 -5 62 -18 61 -9
-1 -14 2 -11 7 3 5 12 9 20 9 8 0 12 4 9 10 -4 6 -17 4 -35 -5 -35 -18 -50
-19 -50 -3 0 6 3 9 6 5 11 -10 64 15 76 36 9 17 7 24 -14 41 -14 12 -33 26
-43 31 -15 9 -14 11 9 13 41 3 66 20 66 46 0 12 3 26 7 30 4 3 8 17 9 29 2 12
0 17 -2 10 -3 -7 -12 -9 -20 -6 -12 4 -10 8 8 17 35 17 34 49 -2 80 l-32 26
46 0 c71 0 79 35 22 99 l-21 24 29 -15 c22 -12 37 -13 58 -6 34 12 36 37 8 83
l-20 32 35 -11 c30 -9 32 -12 15 -16 -19 -5 -20 -7 -6 -25 14 -19 15 -19 27 8
7 15 18 27 26 27 19 0 16 50 -6 87 l-20 31 29 -16 c16 -10 25 -18 20 -20 -6
-2 -10 -7 -10 -12 0 -12 72 16 80 31 5 8 2 31 -5 52 -15 43 -12 45 23 15 15
-12 19 -18 10 -15 -13 5 -18 1 -18 -13 0 -11 5 -20 10 -20 6 0 10 4 10 9 0 5
14 14 30 20 17 5 30 15 30 21 0 6 4 9 9 5 5 -3 12 -1 16 5 4 6 27 21 53 34 67
34 158 50 352 62 52 4 96 8 98 9 1 1 19 1 40 -1 20 -1 79 -5 130 -8z m-688
-24 c0 -5 11 -15 25 -22 23 -12 23 -14 7 -25 -19 -14 -32 -18 -33 -10 0 2 -4
18 -9 35 -5 18 -5 30 1 30 5 0 9 -4 9 -8z m987 -25 c-2 -6 -11 -15 -20 -21
-19 -12 -39 7 -31 29 6 15 56 7 51 -8z m107 -46 c-8 -37 -36 -57 -53 -37 -13
16 -4 46 14 46 7 0 18 7 25 15 17 21 21 14 14 -24z m89 -83 c-19 -38 -31 -48
-50 -41 -25 10 -14 42 20 57 46 20 47 20 30 -16z m-1456 -140 c6 -5 9 -16 7
-23 -11 -27 -33 -23 -60 12 l-27 35 34 -7 c19 -4 39 -12 46 -17z m1607 -50
c-34 -41 -46 -49 -61 -37 -22 19 -15 38 20 48 55 16 62 14 41 -11z m392 -164
c3 -22 2 -25 -6 -14 -10 15 -14 58 -5 48 3 -3 8 -18 11 -34z m-351 -18 c-31
-25 -45 -25 -45 -1 0 8 14 15 33 18 17 2 34 4 37 5 3 1 -8 -9 -25 -22z m352
-38 c-3 -8 -6 -5 -6 6 -1 11 2 17 5 13 3 -3 4 -12 1 -19z m-287 5 c0 -12 -48
-42 -67 -43 -22 0 -33 27 -17 43 7 7 84 7 84 0z m-1855 -17 c11 -7 23 -14 28
-15 8 -1 10 -11 2 -11 -9 -1 -65 30 -65 35 0 9 15 5 35 -9z m18 -50 c3 -8 -1
-20 -9 -27 -13 -10 -22 -9 -50 6 -19 10 -34 21 -34 24 0 3 20 7 44 9 31 1 46
-2 49 -12z m1843 -172 c33 -8 30 -18 -11 -33 -39 -14 -55 -9 -55 18 0 23 11
33 28 26 8 -3 25 -8 38 -11z m-51 -62 c-3 -3 -11 0 -18 7 -9 10 -8 11 6 5 10
-3 15 -9 12 -12z m44 -11 c9 -6 3 -10 -20 -14 -19 -3 -38 0 -44 6 -7 6 -7 8 0
4 6 -3 17 -2 25 4 18 11 22 11 39 0z m-1842 -45 c0 -8 -6 -12 -15 -8 -10 3
-13 1 -8 -6 5 -8 -3 -12 -26 -12 l-33 1 40 18 c22 11 40 20 41 20 0 1 1 -5 1
-13z m1 -70 c5 -25 -15 -36 -49 -26 -15 5 -30 6 -33 2 -3 -3 -6 -1 -6 4 0 13
52 43 70 41 8 -1 16 -11 18 -21z m2169 -58 c-3 -8 -6 -5 -6 6 -1 11 2 17 5 13
3 -3 4 -12 1 -19z m-2154 -2 c11 1 16 -1 12 -4 -4 -4 -22 -7 -42 -7 -31 -1
-33 0 -17 12 10 7 20 9 23 4 3 -4 14 -7 24 -5z m67 -167 c0 -18 -6 -21 -72
-34 -27 -5 -22 10 12 39 33 27 60 25 60 -5z m1649 -60 l24 -32 -39 7 c-46 9
-59 19 -51 40 10 26 42 18 66 -15z m-1596 -33 c8 -19 -14 -36 -53 -43 l-32 -4
23 30 c24 33 53 41 62 17z m244 -261 c2 -13 -9 -27 -32 -42 l-35 -22 6 27 c11
44 24 63 42 60 9 -2 18 -12 19 -23z m1000 -17 c11 -14 25 -78 18 -78 -3 0 -18
12 -35 26 -24 22 -27 30 -19 45 11 22 23 24 36 7z m-988 -52 c-9 -8 -10 -7 -5
7 3 10 7 24 7 30 1 7 3 4 6 -7 3 -10 -1 -23 -8 -30z m892 -8 c0 -7 2 -29 5
-48 l4 -35 -31 32 c-20 20 -30 37 -26 47 7 19 47 22 48 4z m-693 -29 c1 -8 -8
-28 -21 -43 l-25 -28 -4 36 c-2 20 1 41 6 46 14 14 40 8 44 -11z m44 -31 c-14
-25 -17 -26 -23 -11 -8 21 4 40 25 40 13 0 13 -5 -2 -29z m423 -36 c-4 -15 -8
-33 -8 -39 -1 -22 -11 -14 -30 23 -21 44 -9 71 25 53 15 -8 18 -16 13 -37z
m-240 17 c4 -12 2 -26 -4 -32 -6 -6 -11 -19 -11 -29 0 -10 -4 -18 -9 -18 -11
0 -25 75 -16 90 11 17 33 11 40 -11z"/>
<path d="M2733 4094 c-8 -21 13 -42 28 -27 13 13 5 43 -11 43 -6 0 -13 -7 -17
-16z"/>
<path d="M2739 3973 c-23 -5 -30 -40 -12 -58 11 -11 19 -12 34 -5 35 19 17 72
-22 63z"/>
<path d="M3200 3265 c-1 -5 -2 -13 -1 -17 0 -4 -7 -5 -17 -1 -14 5 -14 3 3
-14 21 -21 31 -10 22 25 -3 9 -6 13 -7 7z"/>
<path d="M2427 3208 c-24 -6 -64 -33 -104 -71 -37 -35 -76 -63 -91 -65 -54 -7
-138 -56 -193 -113 -77 -80 -124 -174 -155 -310 -12 -51 -10 -233 2 -302 24
-137 80 -252 164 -337 83 -85 133 -105 255 -105 85 0 107 4 148 24 72 35 141
111 187 205 39 79 91 258 104 361 7 57 24 119 25 93 1 -21 28 -37 51 -31 40
11 51 -110 25 -283 -35 -237 -36 -299 -6 -370 34 -78 87 -101 157 -68 45 22
46 47 1 39 -26 -5 -37 -2 -52 15 -26 28 -32 144 -15 276 25 199 14 298 -39
373 l-20 28 30 29 c38 35 61 80 84 159 72 245 103 305 157 305 8 0 22 -13 31
-30 27 -44 50 -53 76 -29 25 24 27 66 5 98 -15 21 -23 23 -71 19 -44 -4 -60
-11 -88 -38 -46 -45 -87 -135 -120 -265 -32 -127 -44 -155 -87 -195 -30 -29
-32 -30 -56 -14 -13 9 -35 14 -48 11 -19 -3 -23 -1 -20 12 3 9 8 31 11 49 12
72 15 89 30 145 8 31 21 73 29 92 14 32 17 34 51 28 92 -15 186 94 129 151
-32 33 -84 16 -147 -49 l-45 -47 -84 85 c-45 46 -103 94 -127 107 -51 25 -130
34 -184 18z m145 -58 c44 -23 79 -49 180 -131 l56 -47 -29 -57 c-42 -79 -53
-112 -115 -355 -89 -348 -136 -468 -217 -550 -55 -55 -97 -73 -178 -73 -54 1
-77 6 -119 29 -99 54 -189 186 -226 334 -17 69 -23 210 -12 300 24 185 150
375 284 426 49 19 61 15 45 -14 -13 -25 -21 -63 -28 -147 -13 -157 73 -324
181 -354 52 -14 117 4 165 46 l42 35 -7 -28 c-35 -148 -117 -272 -202 -305
-37 -15 -117 -12 -150 5 -90 47 -139 165 -122 295 4 29 3 54 -2 57 -22 14 -31
-130 -12 -202 39 -152 164 -232 302 -194 104 27 200 185 217 355 4 33 17 92
31 132 13 39 24 81 24 92 0 38 -16 22 -30 -29 -7 -27 -15 -48 -17 -46 -2 2
-13 36 -24 77 -44 159 -140 264 -260 283 -44 7 -45 11 -7 40 76 57 153 66 230
26z m434 -96 c1 -47 -47 -84 -111 -84 l-36 0 22 40 c28 50 74 81 103 70 12 -4
21 -16 22 -26z m-618 -16 c35 -8 60 -25 97 -62 77 -77 114 -171 115 -286 0
-48 -4 -59 -31 -88 -104 -110 -230 -79 -307 78 -24 49 -27 66 -26 155 1 79 6
112 23 158 20 52 25 57 52 57 17 0 51 -5 77 -12z"/>
<path d="M3282 3187 c-12 -7 -19 -16 -16 -20 14 -13 32 -7 37 13 3 11 4 20 4
20 -1 -1 -12 -6 -25 -13z"/>
<path d="M2048 3133 c-10 -2 -18 -11 -18 -19 0 -11 4 -10 20 3 17 15 26 26 18
22 -2 -1 -11 -3 -20 -6z"/>
<path d="M3410 3001 c0 -19 22 -23 38 -7 15 15 14 16 -11 16 -15 0 -27 -4 -27
-9z"/>
<path d="M1891 2938 c12 -23 16 -23 29 2 9 17 8 20 -14 18 -20 -2 -23 -5 -15
-20z"/>
<path d="M3470 2899 c0 -5 5 -9 11 -9 5 0 7 -6 3 -12 -5 -9 -2 -9 9 1 22 18
21 26 -3 28 -11 1 -20 -2 -20 -8z"/>
<path d="M1830 2851 c0 -5 6 -14 14 -20 11 -9 16 -9 22 0 5 8 3 10 -7 5 -8 -4
-5 0 5 8 19 15 19 16 -7 16 -15 0 -27 -4 -27 -9z"/>
<path d="M3547 2681 c6 -25 16 -27 33 -6 8 9 8 15 2 15 -6 0 -17 3 -25 6 -12
4 -14 0 -10 -15z"/>
<path d="M1777 2631 c-17 -6 -16 -8 7 -19 23 -10 26 -9 26 8 0 21 -4 23 -33
11z"/>
<path d="M3540 2330 c0 -5 7 -10 16 -10 8 0 12 5 9 10 -3 6 -10 10 -16 10 -5
0 -9 -4 -9 -10z"/>
<path d="M3515 2229 c-10 -15 1 -22 24 -14 12 3 19 11 16 16 -8 12 -32 11 -40
-2z"/>
<path d="M1837 2180 c-16 -19 -15 -20 8 -18 14 1 25 8 25 15 0 21 -16 23 -33
3z"/>
<path d="M3484 2142 c4 -7 2 -12 -4 -12 -6 0 -8 -4 -5 -10 3 -5 14 -10 23 -9
11 0 12 2 4 6 -6 2 -10 9 -7 13 3 5 0 12 -6 16 -8 4 -9 3 -5 -4z"/>
<path d="M1964 1991 c3 -5 -1 -11 -9 -15 -8 -3 -15 -10 -15 -16 0 -7 6 -8 18
-2 9 5 23 7 30 5 9 -3 7 3 -4 16 -19 21 -30 28 -20 12z"/>
<path d="M3351 1943 c-9 -18 -7 -22 11 -26 28 -8 29 -7 13 22 -12 24 -13 24
-24 4z"/>
<path d="M3273 1863 c-7 -3 -13 -10 -13 -15 0 -6 3 -8 7 -5 3 4 14 0 24 -9 16
-15 17 -14 12 5 -6 25 -13 30 -30 24z"/>
<path d="M2225 1750 c3 -5 11 -10 16 -10 6 0 7 5 4 10 -3 6 -11 10 -16 10 -6
0 -7 -4 -4 -10z"/>
<path d="M2307 1702 c1 -8 3 -18 3 -23 0 -5 5 -9 10 -9 6 0 10 9 10 21 0 11
-4 18 -9 15 -5 -4 -11 -3 -14 1 -2 5 -2 2 0 -5z"/>
<path d="M2524 1638 c-4 -7 -2 -14 4 -16 6 -2 8 -11 5 -20 -8 -22 1 -13 15 15
9 17 9 22 -3 27 -8 3 -18 0 -21 -6z"/>
<path d="M2630 1630 c0 -5 5 -10 11 -10 5 0 8 -4 4 -9 -3 -5 -2 -12 3 -15 4
-2 14 5 21 17 8 12 10 19 6 15 -4 -4 -16 -3 -26 3 -13 6 -19 6 -19 -1z"/>
<path d="M2765 1611 c-3 -5 -1 -12 5 -16 5 -3 10 1 10 9 0 18 -6 21 -15 7z"/>
<path d="M2203 3281 c1 -15 4 -17 14 -9 7 5 10 14 7 19 -10 16 -23 9 -21 -10z"/>
<path d="M3540 2789 c0 -5 5 -7 10 -4 6 3 10 8 10 11 0 2 -4 4 -10 4 -5 0 -10
-5 -10 -11z"/>
<path d="M1596 3391 c-10 -11 -16 -25 -14 -32 2 -7 12 0 22 16 21 32 16 43 -8
16z"/>
<path d="M1758 3403 c6 -2 18 -2 25 0 6 3 1 5 -13 5 -14 0 -19 -2 -12 -5z"/>
<path d="M1794 3398 c-4 -6 -19 -8 -35 -6 -15 3 -25 0 -22 -5 3 -5 -3 -6 -15
-3 -12 4 -23 2 -28 -5 -5 -8 -3 -9 6 -4 8 5 11 4 6 -3 -4 -6 -12 -9 -19 -6 -7
2 -22 -5 -34 -16 -12 -11 -27 -20 -33 -20 -6 0 -9 -4 -6 -9 7 -11 -19 -33 -28
-24 -4 4 -4 -1 0 -11 5 -14 4 -17 -4 -12 -7 4 -12 1 -12 -8 0 -9 -5 -16 -11
-16 -5 0 -7 -5 -4 -10 3 -6 -1 -13 -9 -16 -9 -3 -14 -9 -11 -13 2 -4 -7 -31
-21 -60 -13 -29 -21 -57 -18 -62 3 -5 0 -9 -5 -9 -6 0 -10 -3 -10 -7 1 -5 0
-12 -1 -18 -1 -5 -1 -28 -1 -50 l1 -40 -30 60 c-27 53 -33 57 -13 8 6 -16 5
-16 -17 0 -27 19 -48 21 -69 8 -11 -7 -10 -15 4 -45 10 -20 22 -36 28 -36 5 0
3 8 -6 18 -25 28 -25 57 0 60 30 4 103 -70 96 -98 -3 -11 -1 -20 4 -20 5 0 10
-6 10 -14 0 -7 -7 -13 -15 -12 -9 1 -16 -8 -17 -21 -1 -12 2 -20 6 -17 4 2 8
-4 9 -13 10 -174 10 -222 1 -228 -15 -9 -14 -28 2 -19 9 5 9 4 0 -6 -6 -7 -9
-26 -7 -44 3 -17 0 -44 -6 -61 -9 -26 -9 -22 -5 25 3 40 2 51 -6 40 -8 -12 -9
-9 -5 12 3 14 1 37 -4 50 -10 21 -10 20 -5 -7 4 -22 -2 -15 -23 26 -32 62 -68
103 -77 89 -4 -6 -3 -14 0 -20 4 -6 -1 -7 -12 -4 -14 5 -15 4 -4 -4 8 -6 20
-8 27 -5 14 5 34 -26 27 -43 -2 -6 3 -17 12 -24 8 -7 15 -9 15 -4 0 5 7 -4 16
-21 17 -34 35 -155 22 -155 -4 0 -8 -7 -8 -15 0 -19 -43 -103 -67 -131 -10
-11 -38 -35 -62 -52 -46 -33 -42 -45 14 -38 17 2 32 4 34 5 2 0 -4 10 -13 20
-17 19 -17 20 6 32 13 7 28 14 33 14 37 5 74 19 69 26 -3 5 -19 2 -35 -7 -42
-21 -48 -11 -10 17 17 13 31 31 31 41 0 10 9 38 21 62 20 44 42 62 60 50 5 -3
9 -1 9 4 0 13 -29 24 -43 15 -6 -3 1 9 16 29 32 41 36 61 6 27 l-20 -24 7 25
c4 14 8 33 8 42 0 11 4 14 11 8 6 -5 18 -2 29 6 11 8 34 14 50 14 25 0 28 -2
16 -11 -10 -7 -11 -9 -2 -7 21 6 14 22 -13 30 -17 4 -32 0 -49 -13 -26 -21
-41 -8 -25 22 4 8 4 31 0 51 -7 30 -4 40 21 73 34 47 45 55 78 55 19 0 22 3
11 9 -10 6 -25 4 -43 -5 -25 -13 -28 -13 -28 1 0 8 5 15 11 15 5 0 7 4 4 10
-3 5 5 21 19 35 14 14 21 25 17 25 -5 0 -14 -7 -21 -15 -7 -8 -17 -12 -23 -8
-5 3 -7 2 -4 -4 4 -6 -1 -19 -9 -29 -9 -10 -13 -13 -9 -6 3 7 9 25 11 39 8 41
33 89 62 118 39 39 55 45 82 32 28 -15 38 -37 15 -37 -10 0 -13 5 -9 12 4 7 3
8 -5 4 -6 -4 -9 -12 -6 -17 10 -15 34 -10 44 10 13 23 -14 51 -50 51 -47 0
-68 -4 -66 -13 1 -5 -4 -12 -12 -15 -9 -3 -11 0 -6 8 5 9 4 11 -4 6 -6 -4 -9
-12 -6 -17 4 -5 -3 -21 -14 -35 -24 -30 -50 -114 -57 -187 -3 -29 -8 -54 -11
-57 -9 -9 6 146 17 174 5 14 7 32 4 39 -6 17 22 96 43 119 8 10 21 15 27 11 6
-4 5 0 -2 9 -11 13 -8 20 18 42 64 54 160 54 160 0 0 -24 -23 -48 -35 -36 -5
4 -5 1 -1 -5 5 -10 11 -10 26 0 38 23 17 96 -28 98 -9 0 -31 2 -49 3 -18 1
-30 -1 -27 -6 3 -4 -1 -8 -8 -8 -39 0 -112 -90 -140 -170 -6 -18 -6 -14 -2 15
3 22 6 47 6 55 1 8 8 21 17 28 9 8 10 11 4 7 -18 -9 -16 10 2 25 8 7 13 16 10
20 -3 5 0 12 6 16 8 5 9 3 4 -6 -5 -8 -4 -11 3 -6 6 4 9 12 6 19 -6 16 28 57
46 57 9 0 10 3 1 13 -8 11 -5 19 13 36 13 12 32 23 42 23 39 3 94 -13 103 -30
6 -9 10 -12 11 -7 0 6 -4 15 -8 20 -10 15 -62 36 -72 30 -5 -3 -11 -1 -15 5
-4 6 6 10 24 10 17 0 31 4 31 8 0 11 61 32 94 32 36 0 94 -28 106 -50 13 -24
-8 -41 -40 -33 -16 4 -21 3 -16 -5 9 -16 49 -15 64 0 21 21 13 46 -20 71 -37
28 -125 50 -134 35z m-302 -460 c-6 -6 -7 0 -4 19 5 21 7 23 10 9 2 -10 0 -22
-6 -28z m58 -142 c0 -2 -8 -10 -17 -17 -16 -13 -17 -12 -4 4 13 16 21 21 21
13z m-156 -162 c3 -8 2 -12 -4 -9 -6 3 -10 10 -10 16 0 14 7 11 14 -7z m-60
-413 c3 -5 -7 -8 -23 -7 -16 0 -27 4 -25 8 7 11 42 10 48 -1z"/>
<path d="M1555 3359 c-4 -6 -5 -12 -2 -15 2 -3 7 2 10 11 7 17 1 20 -8 4z"/>
<path d="M1860 3315 c-15 -18 -42 -19 -58 -3 -9 9 -12 9 -12 0 0 -23 48 -25
76 -3 15 12 22 21 17 21 -6 0 -16 -7 -23 -15z"/>
<path d="M3780 3317 c0 -15 38 -76 44 -70 10 11 7 19 -19 49 -14 16 -25 26
-25 21z"/>
<path d="M1529 3293 c-7 -10 -9 -15 -5 -11 5 4 15 0 22 -9 11 -15 11 -14 7 10
-6 32 -7 32 -24 10z"/>
<path d="M1740 3261 c-8 -6 -27 -7 -44 -4 -21 4 -27 3 -22 -5 10 -17 48 -15
72 3 21 16 17 20 -6 6z"/>
<path d="M1430 3250 c8 -5 20 -10 25 -10 6 0 3 5 -5 10 -8 5 -19 10 -25 10 -5
0 -3 -5 5 -10z"/>
<path d="M3627 3249 c7 -7 15 -10 18 -7 3 3 -2 9 -12 12 -14 6 -15 5 -6 -5z"/>
<path d="M1399 3232 c6 -11 12 -34 13 -51 1 -18 6 -27 11 -22 13 13 -5 83 -22
89 -10 3 -11 0 -2 -16z"/>
<path d="M1486 3222 c11 -10 23 -24 27 -32 4 -11 6 -9 6 5 1 13 -9 25 -27 32
-27 12 -27 12 -6 -5z"/>
<path d="M3852 3220 c0 -14 2 -19 5 -12 2 6 2 18 0 25 -3 6 -5 1 -5 -13z"/>
<path d="M1623 3215 c0 -8 4 -12 9 -9 4 3 8 9 8 15 0 5 -4 9 -8 9 -5 0 -9 -7
-9 -15z"/>
<path d="M3500 3213 c8 -3 23 -12 32 -20 9 -8 23 -13 30 -10 9 4 8 6 -3 6 -9
1 -22 8 -29 16 -7 8 -20 15 -29 14 -13 0 -14 -1 -1 -6z"/>
<path d="M3585 3200 c-3 -5 -1 -10 4 -10 6 0 11 5 11 10 0 6 -2 10 -4 10 -3 0
-8 -4 -11 -10z"/>
<path d="M1585 3190 c-3 -6 1 -7 9 -4 18 7 21 14 7 14 -6 0 -13 -4 -16 -10z"/>
<path d="M3861 3173 c0 -12 2 -14 6 -4 5 11 7 11 15 0 8 -12 9 -12 6 0 -6 22
-28 25 -27 4z"/>
<path d="M1564 3148 l-19 -23 23 19 c21 18 27 26 19 26 -2 0 -12 -10 -23 -22z"/>
<path d="M3753 3154 c0 -16 13 -19 21 -5 3 5 0 11 -7 14 -8 3 -14 -1 -14 -9z"/>
<path d="M3650 3147 c23 -23 77 -32 77 -13 0 11 -7 14 -23 10 -12 -3 -33 0
-46 6 -20 11 -21 11 -8 -3z"/>
<path d="M1486 3133 c-6 -14 -5 -15 5 -6 7 7 10 15 7 18 -3 3 -9 -2 -12 -12z"/>
<path d="M3892 3105 c0 -27 2 -43 5 -35 3 8 13 24 22 35 15 18 15 19 -1 7 -14
-12 -17 -10 -21 15 -2 16 -4 6 -5 -22z"/>
<path d="M3991 3143 c15 -4 15 -8 2 -45 -14 -42 -12 -55 6 -43 6 3 11 19 11
35 0 16 5 32 11 36 14 8 -8 24 -31 23 -12 -1 -12 -2 1 -6z"/>
<path d="M1417 3119 c4 -13 8 -18 11 -10 2 7 -1 18 -6 23 -8 8 -9 4 -5 -13z"/>
<path d="M1686 3119 c-23 -18 -29 -19 -43 -7 -14 11 -16 11 -11 -2 8 -25 36
-23 65 4 33 31 26 34 -11 5z"/>
<path d="M3945 3130 c-3 -6 1 -7 9 -4 18 7 21 14 7 14 -6 0 -13 -4 -16 -10z"/>
<path d="M1595 3110 c-3 -5 -1 -10 4 -10 6 0 11 5 11 10 0 6 -2 10 -4 10 -3 0
-8 -4 -11 -10z"/>
<path d="M3766 3111 c-3 -5 2 -15 12 -22 15 -13 16 -12 4 3 -10 13 -10 17 0
21 9 4 9 6 1 6 -6 1 -14 -3 -17 -8z"/>
<path d="M3812 3081 c-11 -7 -11 -9 0 -14 9 -3 15 1 15 9 0 8 -1 14 -1 14 -1
0 -7 -4 -14 -9z"/>
<path d="M3845 3020 c10 -11 20 -20 23 -20 3 0 -3 9 -13 20 -10 11 -20 20 -23
20 -3 0 3 -9 13 -20z"/>
<path d="M3992 3015 c-9 -18 -8 -26 1 -31 7 -4 9 -4 5 1 -4 4 -3 16 3 27 6 11
9 22 6 24 -2 2 -9 -7 -15 -21z"/>
<path d="M3679 3011 c10 -7 10 -10 1 -16 -7 -4 -16 -1 -21 6 -7 11 -9 10 -9
-3 0 -20 25 -24 35 -7 5 7 12 6 23 -4 16 -13 71 -32 58 -20 -3 3 0 15 6 27 11
21 11 21 -10 2 -20 -18 -22 -18 -51 3 -16 12 -33 21 -38 21 -4 0 -2 -4 6 -9z"/>
<path d="M1549 2993 c-13 -16 -12 -17 4 -4 9 7 17 15 17 17 0 8 -8 3 -21 -13z"/>
<path d="M1657 3004 c-3 -4 0 -22 8 -41 19 -44 20 -38 -12 -69 l-28 -26 25 7
c28 8 40 22 40 45 0 25 -26 91 -33 84z"/>
<path d="M1404 2892 c31 -60 46 -119 56 -207 7 -66 7 -67 9 -19 1 62 -29 187
-59 237 -31 52 -35 46 -6 -11z"/>
<path d="M1146 2915 c3 -7 19 -19 35 -25 16 -7 29 -19 29 -26 0 -17 17 -19 22
-2 7 20 27 -2 34 -37 8 -46 20 -45 21 3 0 20 -2 32 -4 26 -2 -7 -17 1 -34 17
-17 16 -36 29 -43 29 -6 0 -23 6 -38 14 -21 11 -26 11 -22 1z"/>
<path d="M4053 2917 c14 -12 15 -20 8 -40 -6 -14 -18 -30 -28 -36 -10 -6 -13
-11 -7 -11 15 0 40 30 48 57 5 17 2 24 -16 33 -21 10 -21 10 -5 -3z"/>
<path d="M1436 2908 c3 -5 10 -6 15 -3 13 9 11 12 -6 12 -8 0 -12 -4 -9 -9z"/>
<path d="M3830 2885 c13 -14 26 -25 28 -25 3 0 -5 11 -18 25 -13 14 -26 25
-28 25 -3 0 5 -11 18 -25z"/>
<path d="M3706 2881 c-4 -5 -1 -13 5 -17 8 -4 9 -3 5 4 -4 7 -3 12 3 12 5 0
12 -5 14 -10 3 -6 4 -5 3 2 -3 16 -23 22 -30 9z"/>
<path d="M1346 2845 c4 -16 6 -38 6 -47 0 -10 3 -18 9 -18 5 0 9 5 9 11 0 8 6
7 18 -2 16 -13 16 -12 1 6 -9 11 -24 34 -33 50 l-17 30 7 -30z"/>
<path d="M1648 2854 c-38 -20 -36 -28 2 -9 17 9 30 18 30 20 0 7 -1 6 -32 -11z"/>
<path d="M3717 2829 c-11 -16 -13 -28 -6 -46 5 -14 7 -28 4 -33 -3 -4 10 -20
27 -34 18 -15 38 -31 45 -36 7 -6 16 -10 21 -10 5 0 21 -9 36 -21 14 -11 26
-16 26 -10 0 5 -31 28 -70 51 -38 22 -72 45 -75 50 -8 13 1 13 26 0 13 -7 19
-7 19 0 0 5 -4 10 -10 10 -5 0 -17 11 -25 24 -13 20 -14 29 -5 46 16 30 6 37
-13 9z"/>
<path d="M3866 2837 c3 -10 9 -15 12 -12 3 3 0 11 -7 18 -10 9 -11 8 -5 -6z"/>
<path d="M1208 2820 c18 -25 15 -32 -9 -19 -22 11 -188 26 -179 16 3 -4 29 -8
58 -9 29 -2 54 -8 57 -15 2 -7 10 -10 17 -8 7 3 33 -1 58 -9 28 -9 37 -14 23
-15 -12 -1 -25 -6 -28 -11 -4 -6 -3 -9 2 -8 4 1 19 -4 32 -11 13 -7 21 -8 17
-3 -3 6 -2 13 4 17 5 3 10 -1 10 -9 0 -9 7 -16 16 -16 9 0 13 5 9 13 -4 6 0 4
8 -6 15 -18 16 -18 26 2 10 17 9 20 -4 15 -11 -5 -14 -2 -9 12 4 14 3 16 -4 5
-8 -11 -16 -9 -43 10 -18 13 -42 33 -53 44 -12 12 -15 14 -8 5z"/>
<path d="M934 2776 c-42 -42 -54 -62 -26 -45 12 7 19 16 16 20 -2 4 8 16 23
27 16 11 26 22 23 25 -3 3 -19 -9 -36 -27z"/>
<path d="M988 2803 c7 -3 16 -2 19 1 4 3 -2 6 -13 5 -11 0 -14 -3 -6 -6z"/>
<path d="M4243 2773 c-24 -8 -43 -19 -43 -24 0 -5 -6 -9 -13 -9 -18 0 -43 -29
-50 -57 -9 -41 10 -34 22 7 12 39 24 50 36 31 3 -5 16 0 29 12 13 12 34 30 47
39 29 21 26 21 -28 1z"/>
<path d="M1115 2753 c-7 -7 -15 -9 -19 -6 -3 4 -6 -7 -6 -23 l0 -29 13 24 c6
13 28 30 47 37 34 12 34 13 6 11 -16 -1 -35 -7 -41 -14z"/>
<path d="M1402 2750 c0 -14 2 -19 5 -12 2 6 2 18 0 25 -3 6 -5 1 -5 -13z"/>
<path d="M3818 2749 c12 -14 20 -29 17 -32 -3 -4 -2 -5 2 -2 4 3 8 13 9 21 1
9 0 13 -3 10 -4 -3 -16 2 -27 11 -18 15 -18 14 2 -8z"/>
<path d="M4301 2754 c0 -11 3 -14 6 -6 3 7 2 16 -1 19 -3 4 -6 -2 -5 -13z"/>
<path d="M1052 2743 c-9 -14 -15 -15 -56 -3 -26 7 -49 10 -52 8 -8 -9 86 -29
105 -23 10 3 18 12 18 20 0 19 -4 19 -15 -2z"/>
<path d="M1158 2718 c-31 -11 -38 -28 -10 -23 9 2 33 4 52 6 31 2 32 2 7 6
-15 2 -25 9 -22 14 4 5 5 9 3 8 -2 0 -15 -5 -30 -11z"/>
<path d="M1411 2684 c6 -21 13 -41 16 -44 9 -9 -9 65 -18 74 -4 5 -3 -8 2 -30z"/>
<path d="M1541 2703 c-16 -17 -23 -76 -9 -67 5 3 6 15 2 26 -5 15 -3 19 7 13
8 -5 11 -5 7 0 -4 4 -3 14 4 22 16 19 6 24 -11 6z"/>
<path d="M4055 2691 c-8 -16 -18 -31 -22 -33 -5 -3 -2 -3 5 -2 6 2 12 -1 12
-6 0 -6 5 -10 11 -10 6 0 8 7 5 16 -4 9 1 27 9 40 9 13 11 24 5 24 -5 0 -16
-13 -25 -29z"/>
<path d="M4201 2672 c-24 -26 -40 -40 -35 -32 4 8 -5 3 -20 -12 -16 -15 -33
-25 -39 -21 -6 4 -7 1 -2 -7 6 -10 4 -12 -8 -7 -12 4 -14 2 -10 -11 6 -15 5
-15 -10 -3 -15 12 -17 12 -11 -4 5 -13 4 -16 -4 -11 -7 4 -12 4 -12 -1 0 -4
-10 -24 -22 -43 -13 -19 -31 -53 -40 -75 l-18 -40 4 35 5 35 -13 -40 c-8 -24
-10 -47 -5 -56 5 -9 5 -20 1 -24 -4 -5 -1 -5 6 -1 6 4 12 17 12 29 1 21 39
101 40 83 0 -5 7 -3 15 4 8 7 14 19 13 26 -2 7 6 20 17 29 11 9 14 14 8 10 -7
-3 -13 -1 -13 5 0 8 9 10 23 7 12 -4 29 -2 37 4 12 8 10 9 -7 4 -17 -5 -22 -3
-17 8 3 9 14 12 30 9 13 -2 24 0 24 7 0 6 -8 8 -17 4 -15 -5 -16 -3 -6 7 10
11 15 11 28 0 10 -8 15 -9 15 -1 0 6 15 12 33 12 21 1 25 3 12 6 -11 3 -24 9
-30 15 -6 6 -3 7 9 2 12 -4 17 -4 13 2 -3 5 6 11 19 12 14 1 34 7 45 12 14 8
19 7 19 -2 0 -10 2 -10 8 -1 4 7 19 17 32 23 20 8 15 9 -29 5 -30 -4 -63 -11
-73 -16 -23 -13 -23 -4 3 32 29 41 20 36 -30 -19z m-169 -194 c-7 -7 -12 -8
-12 -2 0 14 12 26 19 19 2 -3 -1 -11 -7 -17z"/>
<path d="M4285 2711 c-3 -5 -2 -12 3 -15 5 -3 9 1 9 9 0 17 -3 19 -12 6z"/>
<path d="M1105 2690 c-3 -5 -17 -10 -30 -10 -31 0 -91 -53 -97 -85 -7 -32 26
-65 45 -46 9 10 9 11 -4 6 -22 -8 -31 19 -17 50 6 13 25 31 43 40 37 17 125
21 125 5 0 -5 12 -10 26 -10 15 0 23 -4 19 -10 -4 -6 -3 -9 2 -8 14 4 53 -13
53 -23 0 -6 -4 -7 -10 -4 -5 3 -10 1 -10 -4 0 -6 10 -11 23 -11 16 0 31 -13
50 -42 15 -23 27 -49 28 -58 1 -8 2 -28 4 -45 3 -43 -13 -95 -43 -135 -21 -29
-22 -32 -4 -16 32 28 65 103 67 152 1 24 -2 44 -6 44 -5 0 -9 7 -9 16 0 9 5
12 12 8 7 -4 8 -3 4 5 -4 6 -12 8 -18 5 -7 -5 -9 0 -6 14 4 14 2 20 -5 15 -7
-4 -8 0 -4 11 5 11 3 15 -5 10 -7 -5 -9 -2 -5 8 6 17 -34 62 -56 63 -22 2 -47
17 -41 26 3 5 -3 6 -12 2 -11 -4 -15 -3 -11 4 5 7 -1 9 -15 5 -12 -3 -19 -1
-15 4 3 5 -12 8 -35 6 -28 -3 -39 -1 -34 7 4 6 5 11 2 11 -3 0 -8 -4 -11 -10z
m205 -85 c13 -14 19 -25 14 -25 -8 1 -50 50 -41 50 2 0 14 -11 27 -25z"/>
<path d="M1610 2678 c-15 -6 -20 -12 -12 -15 6 -3 9 -10 5 -16 -3 -7 -2 -8 3
-4 5 5 8 12 7 15 -1 4 8 12 20 19 27 15 11 16 -23 1z"/>
<path d="M1261 2666 c-9 -11 -9 -16 0 -22 8 -5 9 -3 4 6 -6 10 -4 12 8 7 11
-4 14 -2 10 9 -6 17 -8 17 -22 0z"/>
<path d="M4361 2676 c2 -2 24 -6 48 -9 29 -4 40 -2 30 4 -13 8 -88 14 -78 5z"/>
<path d="M4467 2659 c7 -7 15 -10 18 -7 3 3 -2 9 -12 12 -14 6 -15 5 -6 -5z"/>
<path d="M1300 2654 c0 -1 11 -9 24 -17 22 -15 24 -15 22 0 -2 9 -12 17 -24
18 -12 1 -22 1 -22 -1z"/>
<path d="M4320 2650 c-9 -6 -10 -10 -3 -10 6 0 15 5 18 10 8 12 4 12 -15 0z"/>
<path d="M673 2630 c-18 -10 -40 -34 -49 -52 -19 -35 -36 -130 -22 -122 4 3 8
-2 8 -11 0 -20 43 -104 53 -105 5 0 7 3 5 8 -64 125 -67 176 -12 240 26 31 43
42 64 42 16 0 30 -6 33 -12 2 -7 8 -9 13 -5 11 10 -23 37 -45 37 -9 0 -30 -9
-48 -20z"/>
<path d="M4007 2611 c-4 -18 -7 -43 -6 -55 1 -11 5 -1 10 24 5 25 7 49 6 55
-2 5 -7 -5 -10 -24z"/>
<path d="M4516 2625 c18 -14 18 -14 -5 -15 -13 0 -41 -5 -63 -12 -31 -9 -44
-9 -59 0 -12 8 -19 8 -19 2 0 -19 33 -23 92 -11 43 9 63 9 79 0 17 -9 20 -8
14 3 -15 24 -38 48 -48 48 -6 0 -2 -7 9 -15z"/>
<path d="M4260 2621 c8 -5 26 -11 40 -13 15 -2 30 -13 37 -28 l12 -25 -2 28
c-1 28 -13 36 -70 42 -21 3 -27 1 -17 -4z"/>
<path d="M700 2589 c-10 -22 -15 -27 -21 -17 -6 8 -9 1 -9 -22 l0 -35 16 31
c8 18 24 41 35 53 15 16 16 21 6 21 -8 0 -20 -14 -27 -31z"/>
<path d="M1360 2606 c0 -2 8 -10 18 -17 15 -13 16 -12 3 4 -13 16 -21 21 -21
13z"/>
<path d="M3835 2590 c10 -11 20 -20 23 -20 3 0 -3 9 -13 20 -10 11 -20 20 -23
20 -3 0 3 -9 13 -20z"/>
<path d="M1019 2583 c-13 -17 -13 -17 6 -3 11 8 22 16 24 17 2 2 0 3 -6 3 -6
0 -17 -8 -24 -17z"/>
<path d="M1089 2579 c19 -12 51 -22 70 -24 20 -2 28 -1 18 2 -9 2 -14 9 -11
15 4 6 -1 8 -14 4 -12 -4 -34 0 -51 8 -44 23 -52 19 -12 -5z"/>
<path d="M4220 2570 l-25 -8 27 -1 c15 -1 30 -6 34 -12 4 -8 9 -7 15 2 7 11 9
11 9 1 0 -7 5 -10 10 -7 6 3 10 1 10 -4 0 -6 -10 -11 -22 -11 -31 0 -119 -42
-142 -68 -10 -12 -22 -19 -26 -17 -4 3 -14 -3 -21 -12 -12 -14 -12 -16 0 -9 9
6 12 4 9 -5 -3 -8 -10 -14 -15 -14 -6 0 -15 -4 -20 -9 -5 -6 -2 -6 6 -1 11 6
13 4 7 -11 -5 -10 -11 -28 -14 -39 -3 -11 -12 -25 -20 -31 -9 -7 -11 -13 -5
-17 6 -4 8 -17 6 -30 -8 -38 34 -120 85 -168 46 -43 46 -43 11 -4 -47 51 -69
95 -74 146 -9 89 51 194 131 233 22 10 47 22 56 27 10 5 42 9 72 9 91 0 157
-68 110 -114 -8 -9 -11 -16 -5 -16 6 0 18 11 27 25 14 21 14 30 4 54 -18 43
-73 79 -117 75 -22 -1 -32 1 -24 5 12 8 3 13 -59 34 -8 3 -26 1 -40 -3z"/>
<path d="M1559 2566 c-1 -3 -2 -11 -3 -16 0 -6 -14 -22 -31 -36 -17 -14 -21
-21 -10 -15 32 15 68 58 56 66 -6 3 -12 4 -12 1z"/>
<path d="M1046 2548 c3 -5 10 -6 15 -3 13 9 11 12 -6 12 -8 0 -12 -4 -9 -9z"/>
<path d="M1283 2517 c44 -41 49 -56 8 -26 -15 11 -39 19 -51 17 -26 -3 -49
-33 -36 -45 5 -4 11 -2 13 5 6 16 33 16 33 -1 0 -7 -12 -24 -26 -36 -21 -18
-24 -27 -18 -49 12 -42 7 -92 -12 -113 -17 -19 -10 -25 13 -11 22 14 30 54 19
100 -8 35 -7 47 2 50 7 2 12 9 12 17 0 7 6 18 14 25 8 6 12 18 9 27 -5 13 -3
13 16 2 11 -8 24 -29 27 -47 7 -38 -12 -116 -26 -107 -6 3 -7 -1 -4 -9 6 -16
-10 -23 -19 -8 -2 4 -3 2 -2 -3 8 -36 -96 -103 -161 -105 -107 -3 -123 -4
-119 -11 7 -10 95 -7 95 3 0 4 5 8 11 8 5 0 8 -4 5 -9 -9 -13 57 4 108 28 88
43 137 123 139 228 0 47 -12 67 -57 90 -30 15 -30 15 7 -20z"/>
<path d="M3991 2523 c-1 -6 -4 -20 -7 -30 -5 -17 -5 -17 6 0 6 10 9 23 6 30
-3 9 -5 9 -5 0z"/>
<path d="M4178 2516 c3 -5 -3 -6 -14 -2 -10 4 -15 4 -11 0 4 -4 2 -14 -5 -21
-9 -11 41 12 70 33 2 1 -8 1 -21 0 -14 0 -23 -5 -19 -10z"/>
<path d="M3780 2506 c0 -3 9 -10 20 -16 11 -6 20 -8 20 -6 0 3 -9 10 -20 16
-11 6 -20 8 -20 6z"/>
<path d="M4115 2500 c-3 -6 1 -7 9 -4 18 7 21 14 7 14 -6 0 -13 -4 -16 -10z"/>
<path d="M640 2492 c0 -21 47 -62 72 -62 17 0 19 -3 10 -9 -10 -6 -7 -10 13
-15 15 -4 30 -5 33 -1 3 3 -2 5 -10 5 -9 0 -18 6 -21 14 -3 7 -18 16 -34 19
-16 3 -35 18 -45 34 -10 15 -18 22 -18 15z"/>
<path d="M4703 2488 c-22 -29 -23 -36 -3 -31 23 6 60 -21 61 -46 0 -11 2 -12
6 -3 7 18 -24 62 -45 62 -14 0 -14 2 -3 9 47 30 131 -70 131 -155 0 -98 -127
-253 -219 -267 -18 -3 -36 -9 -39 -13 -4 -4 1 -4 11 -1 10 4 16 3 12 -3 -11
-17 -135 -50 -199 -52 -54 -2 -61 -4 -49 -16 10 -10 17 -11 26 -3 7 6 33 11
58 11 55 0 81 4 95 13 6 3 24 11 39 17 23 9 26 8 21 -5 -3 -8 -3 -15 0 -15 2
0 9 12 15 28 6 15 13 22 16 15 3 -8 8 -9 16 -2 7 5 32 27 57 49 41 36 46 38
62 23 10 -9 18 -28 19 -42 0 -14 3 -19 6 -11 2 8 9 25 15 37 6 13 8 26 5 30
-4 3 -7 -1 -7 -11 0 -13 -4 -15 -19 -6 -19 10 -18 13 20 80 21 38 39 75 40 82
0 7 4 4 8 -6 7 -19 8 -19 13 2 4 12 2 20 -2 17 -4 -3 -6 13 -3 35 7 54 -19
121 -63 160 -36 32 -84 40 -101 18z"/>
<path d="M678 2483 c6 -2 9 -10 6 -15 -4 -7 -2 -8 5 -4 13 9 5 26 -12 25 -9 0
-8 -2 1 -6z"/>
<path d="M4051 2455 c-17 -20 -31 -39 -31 -42 0 -4 3 -3 8 3 4 5 20 24 36 42
17 17 27 32 24 32 -3 0 -20 -16 -37 -35z"/>
<path d="M4139 2424 c-16 -17 -18 -23 -7 -19 9 4 19 13 22 21 3 9 10 12 16 9
6 -4 8 -10 5 -15 -3 -5 -2 -11 3 -14 4 -2 8 4 9 14 2 29 -23 31 -48 4z"/>
<path d="M4343 2435 c-12 -8 -41 -17 -64 -20 -56 -7 -63 -15 -13 -15 21 0 54
9 72 20 39 24 56 25 76 4 9 -8 16 -11 16 -5 0 12 -32 31 -52 31 -8 0 -23 -7
-35 -15z"/>
<path d="M656 2415 c19 -29 21 -30 21 -11 0 7 -9 19 -19 25 -18 11 -18 11 -2
-14z"/>
<path d="M1625 2419 c-4 -6 -13 -8 -21 -5 -8 3 -14 1 -14 -3 0 -5 -12 -14 -27
-19 -22 -8 -24 -11 -8 -12 19 -1 19 -2 -4 -20 -13 -11 -18 -20 -12 -20 6 0 20
14 33 30 12 17 27 30 34 30 6 0 17 7 24 15 7 8 10 15 7 15 -3 0 -9 -5 -12 -11z"/>
<path d="M3828 2408 c5 -5 16 -8 23 -6 8 3 3 7 -10 11 -17 4 -21 3 -13 -5z"/>
<path d="M4390 2390 c0 -5 5 -10 10 -10 6 0 10 5 10 10 0 6 -4 10 -10 10 -5 0
-10 -4 -10 -10z"/>
<path d="M756 2381 c-6 -9 36 -41 54 -41 6 0 0 11 -14 25 -28 27 -32 29 -40
16z"/>
<path d="M1457 2383 c-10 -9 -9 -23 1 -23 5 0 9 7 9 15 0 17 -1 18 -10 8z"/>
<path d="M4121 2361 c-17 -16 -31 -35 -32 -43 0 -7 -2 -21 -4 -30 -5 -30 22
-118 49 -157 52 -74 142 -120 253 -128 42 -2 73 -1 73 5 0 5 -22 8 -50 7 -27
-1 -47 1 -45 5 2 4 -7 5 -20 2 -14 -2 -44 3 -67 13 -42 16 -105 73 -100 88 1
5 -2 6 -7 3 -18 -12 -55 65 -55 116 -1 40 3 53 22 68 24 20 49 17 69 -8 11
-13 13 -13 19 2 18 47 -56 62 -101 20 -18 -17 -26 -20 -21 -9 3 9 6 18 6 20 0
3 17 16 37 30 22 14 31 25 21 25 -9 0 -30 -13 -47 -29z"/>
<path d="M4783 2373 c-3 -10 -8 -22 -11 -27 -3 -5 0 -6 5 -3 11 7 25 47 17 47
-3 0 -7 -8 -11 -17z"/>
<path d="M673 2356 c0 -11 -3 -29 -8 -39 -4 -11 -3 -17 3 -15 11 3 13 -9 5
-29 -3 -7 -9 -10 -14 -7 -11 6 -11 -4 1 -31 8 -19 9 -19 9 1 1 12 10 32 22 45
l20 24 -6 -25 c-4 -18 -3 -21 3 -11 8 10 11 6 17 -18 3 -17 11 -31 16 -31 6 0
6 8 -1 19 -17 33 -11 36 18 8 16 -15 31 -25 34 -22 3 3 11 -1 18 -10 7 -8 18
-15 26 -15 7 0 18 -8 23 -17 6 -11 11 -13 11 -5 0 10 6 10 28 -1 15 -7 35 -12
46 -9 11 2 16 0 12 -7 -5 -7 -1 -8 10 -4 11 4 15 3 11 -4 -5 -8 1 -7 18 0 25
12 25 12 2 15 -57 8 -167 46 -155 53 9 6 6 9 -9 9 -13 0 -23 5 -23 11 0 5 -4
7 -10 4 -5 -3 -10 -1 -10 4 0 6 -3 10 -7 9 -12 -3 -56 23 -70 41 -7 10 -8 20
-2 27 5 7 0 18 -15 31 l-24 21 1 -22z m37 -20 c0 -11 -19 -15 -25 -6 -3 5 1
10 9 10 9 0 16 -2 16 -4z"/>
<path d="M1128 2338 c-21 -20 -38 -42 -38 -47 0 -6 -4 -11 -10 -11 -5 0 -10
-4 -10 -10 0 -21 20 -9 26 15 7 27 19 33 27 13 3 -8 8 -6 13 7 4 11 14 25 22
31 8 6 13 17 11 25 -3 10 -15 3 -41 -23z"/>
<path d="M4814 2325 c-4 -8 -13 -15 -21 -15 -8 0 -11 5 -8 10 3 6 1 10 -4 10
-6 0 -11 -7 -11 -15 0 -8 5 -15 11 -15 20 0 -3 -20 -24 -21 -13 0 -16 -3 -9
-6 20 -8 58 15 71 43 6 13 8 24 5 24 -2 0 -7 -7 -10 -15z"/>
<path d="M620 2326 c0 -2 7 -9 15 -16 9 -7 15 -8 15 -2 0 5 -7 12 -15 16 -8 3
-15 4 -15 2z"/>
<path d="M725 2320 c-6 -9 53 -45 61 -37 3 2 -9 10 -26 17 -23 9 -28 15 -18
21 9 6 9 9 1 9 -6 0 -14 -4 -18 -10z"/>
<path d="M1460 2320 c-8 -5 -10 -10 -5 -10 6 0 17 5 25 10 8 5 11 10 5 10 -5
0 -17 -5 -25 -10z"/>
<path d="M768 2313 c7 -3 16 -2 19 1 4 3 -2 6 -13 5 -11 0 -14 -3 -6 -6z"/>
<path d="M4160 2309 c0 -9 7 -22 15 -29 8 -7 15 -18 15 -25 0 -8 5 -15 12 -17
9 -3 9 -15 0 -50 -13 -49 -9 -72 16 -100 22 -26 35 -22 17 6 -23 34 -26 65
-13 109 11 37 10 41 -14 62 -14 12 -30 30 -36 41 -9 16 -11 16 -12 3z"/>
<path d="M3782 2288 c-7 -7 -12 -18 -12 -25 0 -17 37 -36 45 -23 3 5 -3 10
-14 10 -23 0 -28 19 -9 38 7 7 10 12 7 12 -3 0 -10 -5 -17 -12z"/>
<path d="M1000 2280 c22 -14 2 -42 -41 -58 l-34 -13 45 6 c48 6 66 17 81 49 6
13 2 11 -11 -6 -12 -16 -27 -28 -33 -28 -8 0 -7 4 1 12 18 18 15 48 -5 48 -15
0 -16 -2 -3 -10z"/>
<path d="M939 2263 c-13 -17 -13 -17 6 -3 11 8 22 16 24 17 2 2 0 3 -6 3 -6 0
-17 -8 -24 -17z"/>
<path d="M4801 2260 c-13 -11 -21 -26 -18 -35 4 -8 -7 -25 -26 -41 -18 -15
-31 -31 -29 -36 1 -5 -8 -7 -20 -3 -16 4 -19 3 -9 -3 11 -8 10 -12 -5 -21 -11
-6 -15 -11 -11 -11 17 0 56 33 50 43 -4 6 0 8 10 4 18 -7 52 37 50 66 -1 9 1
17 5 17 4 0 13 9 20 20 15 25 13 25 -17 0z"/>
<path d="M838 2263 c7 -3 16 -2 19 1 4 3 -2 6 -13 5 -11 0 -14 -3 -6 -6z"/>
<path d="M1259 2243 c-13 -17 -13 -17 6 -3 11 8 22 16 24 17 2 2 0 3 -6 3 -6
0 -17 -8 -24 -17z"/>
<path d="M4669 2210 c-38 -42 -32 -52 13 -22 21 14 25 21 16 30 -12 12 -7 16
37 25 16 4 15 5 -5 6 -17 0 -36 -12 -61 -39z"/>
<path d="M3820 2222 c0 -10 28 -36 50 -46 8 -4 5 1 -7 10 -27 20 -30 36 -5 28
14 -5 15 -4 2 5 -18 13 -40 14 -40 3z"/>
<path d="M4856 2213 c-6 -14 -5 -15 5 -6 7 7 10 15 7 18 -3 3 -9 -2 -12 -12z"/>
<path d="M1195 2189 l-50 -20 49 6 c27 3 60 5 74 5 25 0 25 1 6 15 -23 17 -18
18 -79 -6z"/>
<path d="M1478 2201 c-40 -9 -68 -37 -68 -68 1 -24 2 -25 11 -10 6 10 22 17
40 17 18 0 28 4 24 10 -12 20 16 9 38 -14 55 -59 64 -74 55 -93 -8 -16 -7 -16
6 1 17 21 22 71 7 80 -4 3 -6 -6 -3 -19 2 -15 0 -25 -7 -25 -6 0 -11 4 -11 9
0 5 -15 26 -34 45 -36 39 -34 49 10 40 55 -11 100 -64 81 -95 -6 -9 -7 -24 -2
-35 5 -11 7 -23 6 -27 -1 -5 4 -5 10 -1 9 5 10 -3 6 -27 -4 -19 -3 -40 2 -48
6 -9 9 1 9 29 1 23 3 45 6 48 6 5 11 -46 8 -78 -7 -71 -12 -95 -21 -93 -6 2
-8 -4 -5 -12 4 -8 2 -15 -4 -15 -6 0 -9 -11 -8 -25 3 -27 -55 -138 -61 -117
-3 6 -9 12 -15 12 -6 0 -5 -6 2 -15 11 -13 9 -20 -11 -41 -45 -49 -99 -86
-115 -80 -11 4 2 18 47 49 59 40 91 75 55 61 -9 -3 -16 -13 -16 -21 0 -8 -4
-11 -10 -8 -5 3 -10 1 -10 -5 0 -7 -7 -10 -15 -6 -8 3 -14 0 -12 -7 1 -7 -9
-11 -28 -10 -28 2 -28 2 -5 -5 24 -8 23 -9 -18 -25 -52 -21 -56 -21 -48 -2 3
9 0 15 -9 15 -29 0 -64 24 -76 52 -15 36 -35 47 -78 40 -26 -3 -32 -1 -29 9 3
8 13 13 22 13 21 -2 17 30 -4 33 -24 5 -40 -11 -56 -53 l-15 -39 5 55 4 55
-14 -38 c-21 -58 -1 -96 71 -137 61 -35 134 -45 188 -27 19 6 32 6 39 -1 8 -8
-2 -17 -36 -32 -26 -11 -57 -20 -69 -20 -12 0 -29 -5 -37 -11 -13 -9 -13 -10
2 -6 24 8 30 -4 13 -23 -13 -14 -13 -17 0 -17 8 0 12 4 9 8 -2 4 0 10 6 14 6
4 7 11 4 17 -4 6 7 9 27 7 26 -2 46 6 84 34 28 20 58 35 67 33 11 -2 15 1 11
10 -4 10 0 12 13 8 16 -5 16 -4 4 5 -13 9 -12 11 4 11 11 0 17 3 13 6 -3 3 5
18 19 32 13 15 24 30 24 35 0 4 5 5 12 1 6 -4 8 -3 4 4 -3 6 0 14 8 19 8 4 15
13 16 18 1 6 6 9 11 8 4 -2 6 4 3 12 -4 8 -2 15 3 15 5 0 9 8 10 19 1 10 9 36
19 57 9 21 16 52 15 67 -2 15 1 33 6 40 12 16 10 42 -10 106 -20 65 -21 74 -4
65 13 -7 -53 56 -97 93 -14 12 -26 17 -26 12 0 -5 -10 -5 -22 -1 -13 5 -35 6
-50 3z m2 -26 c-14 -17 -30 -20 -30 -6 0 5 8 12 18 14 9 3 19 5 21 6 2 0 -2
-6 -9 -14z m179 -139 c1 -15 -2 -16 -14 -6 -16 13 -20 42 -8 54 8 8 21 -20 22
-48z m-437 -368 c29 -2 40 -9 54 -33 23 -39 55 -66 72 -60 7 3 10 0 7 -5 -11
-18 -112 -3 -145 20 -36 26 -50 50 -50 86 0 25 1 26 13 11 6 -9 28 -18 49 -19z"/>
<path d="M4260 2201 c0 -14 44 -80 53 -81 5 0 5 5 2 10 -3 6 -1 10 5 10 6 0
16 -14 22 -31 7 -21 13 -27 18 -18 6 9 16 5 39 -17 34 -32 83 -47 115 -34 17
7 15 8 -12 8 -35 -1 -72 25 -72 51 0 14 2 14 11 1 9 -12 10 -12 7 -1 -3 8 -10
17 -16 19 -18 6 -15 -29 5 -50 28 -31 -1 -20 -32 12 -16 17 -32 30 -36 30 -4
0 -30 23 -58 50 -28 28 -51 46 -51 41z"/>
<path d="M750 2191 c0 -6 4 -13 10 -16 6 -3 7 1 4 9 -7 18 -14 21 -14 7z"/>
<path d="M1326 2165 c17 -14 13 -14 -47 -9 -39 4 -69 3 -72 -3 -4 -6 10 -10
31 -11 22 -1 42 -9 51 -19 13 -17 13 -17 8 0 -5 12 -1 17 12 17 27 0 51 10 51
22 0 5 -4 6 -10 3 -5 -3 -10 -1 -10 4 0 6 -8 11 -17 11 -15 0 -14 -2 3 -15z"/>
<path d="M4833 2153 c-12 -13 -19 -23 -14 -23 10 0 46 39 40 43 -2 2 -14 -7
-26 -20z"/>
<path d="M1030 2158 c0 -4 9 -9 20 -9 33 -2 38 -4 46 -12 4 -4 16 1 27 10 20
17 20 17 13 -2 -5 -15 -4 -17 5 -8 15 15 3 33 -24 33 -16 0 -18 -3 -8 -9 9 -6
10 -11 2 -15 -6 -4 -14 -1 -17 8 -6 15 -64 20 -64 4z"/>
<path d="M3900 2162 c8 -5 26 -13 40 -16 17 -5 20 -4 10 2 -8 5 -26 13 -40 16
-17 5 -20 4 -10 -2z"/>
<path d="M806 2131 c18 -32 68 -72 89 -70 6 0 1 6 -10 12 -11 7 -37 30 -59 52
l-39 40 19 -34z"/>
<path d="M524 2107 c-13 -15 -14 -18 -3 -9 15 11 20 8 39 -23 12 -20 24 -34
27 -31 8 7 -7 46 -18 46 -5 0 -9 6 -9 14 0 25 -17 26 -36 3z"/>
<path d="M1126 2106 c3 -8 16 -17 30 -20 13 -4 24 -11 24 -17 0 -19 -33 -60
-46 -55 -7 3 -15 -1 -18 -9 -11 -29 52 6 64 36 10 24 19 29 49 30 21 1 28 3
16 6 -11 3 -24 9 -29 14 -6 5 -15 4 -21 -1 -8 -7 -20 -4 -38 10 -30 24 -38 25
-31 6z"/>
<path d="M1194 2109 c16 -4 36 -4 44 0 10 6 0 9 -29 9 -40 0 -41 -1 -15 -9z"/>
<path d="M1084 2095 c-19 -15 -19 -15 1 -8 13 5 4 -11 -27 -45 -26 -29 -52
-66 -60 -82 -11 -25 -14 -27 -20 -12 -7 17 -10 -7 -12 -90 l-1 -38 -18 23 -18
22 11 -24 c10 -19 9 -26 -1 -33 -10 -7 -9 -8 5 -4 14 5 16 3 9 -6 -6 -7 -9
-20 -8 -28 3 -16 22 -89 31 -118 3 -9 -8 8 -26 38 -17 30 -40 64 -52 75 -12
12 -9 4 9 -21 16 -22 37 -60 47 -83 13 -28 22 -38 27 -29 5 8 8 5 6 -10 -2
-25 -12 -29 -21 -7 -3 8 -9 14 -13 13 -10 -4 -63 37 -63 48 0 4 14 -5 32 -22
18 -16 11 -6 -15 24 -49 56 -103 144 -117 190 -5 17 -9 20 -9 9 -1 -23 32 -88
76 -152 l35 -50 -48 50 c-27 28 -55 60 -63 72 -8 12 -19 19 -24 16 -6 -3 -7
-1 -3 5 10 17 -2 32 -19 26 -8 -4 -12 -11 -8 -17 3 -6 1 -7 -6 -3 -6 4 -9 11
-6 16 3 4 -3 14 -12 21 -15 12 -16 12 -10 -5 6 -16 5 -17 -8 -6 -12 10 -13 15
-4 21 8 4 13 30 13 62 1 30 -2 53 -6 50 -5 -2 -8 -14 -8 -26 0 -18 -2 -19 -10
-7 -14 22 -12 4 4 -35 14 -33 14 -34 -5 -22 -10 6 -19 15 -19 19 0 4 -18 17
-40 29 -21 12 -36 27 -33 32 3 6 1 7 -5 3 -14 -9 -63 4 -57 14 5 9 -54 70 -67
70 -4 0 9 -16 30 -36 24 -23 30 -33 17 -29 -25 9 -64 16 -88 16 -9 0 -15 4
-13 8 7 11 -134 -6 -148 -18 -7 -6 -16 -8 -20 -4 -4 4 -16 -3 -28 -17 -11 -14
-16 -18 -12 -10 7 13 6 13 -9 1 -10 -8 -16 -16 -13 -18 2 -2 -7 -15 -19 -27
-29 -29 -51 -104 -37 -126 12 -20 49 -25 68 -10 19 16 18 34 -1 26 -17 -6 -21
19 -5 27 6 3 5 4 -2 3 -7 -2 -12 -15 -11 -30 1 -21 -2 -26 -15 -24 -40 7 -22
85 30 134 30 28 30 28 18 4 -12 -23 -12 -24 3 -11 10 7 17 19 17 26 0 8 8 11
23 8 14 -3 18 -2 10 4 -8 6 -1 12 23 19 31 10 33 10 20 -5 -7 -9 -16 -25 -20
-36 -3 -11 -21 -37 -40 -57 -19 -21 -31 -38 -26 -38 5 0 18 14 30 30 15 21 26
28 33 21 18 -14 63 -2 87 24 18 20 19 23 5 35 -13 11 -15 10 -10 -2 7 -16 -19
-42 -52 -52 -35 -11 -30 25 10 66 34 37 87 50 87 23 0 -8 5 -15 10 -15 6 0 10
4 10 9 0 4 22 4 50 -2 27 -5 47 -13 45 -18 -3 -4 0 -11 6 -15 8 -4 9 -3 5 4
-8 13 4 15 29 6 13 -6 14 -9 3 -16 -9 -7 -7 -8 10 -5 12 3 22 2 22 -3 0 -4 13
-13 30 -20 16 -7 35 -18 41 -26 6 -8 -13 -3 -45 12 -46 21 -68 25 -125 22 -38
-2 -67 -6 -64 -10 2 -5 -2 -8 -10 -8 -21 0 -59 -58 -55 -87 2 -14 14 -33 28
-41 l25 -16 -23 26 c-28 31 -23 58 15 87 29 24 85 36 110 26 10 -4 32 -9 48
-10 31 -2 111 -38 117 -53 1 -4 26 -23 53 -42 62 -42 105 -82 99 -91 -2 -4 10
-19 28 -34 18 -15 25 -25 16 -21 -10 3 -18 1 -18 -4 0 -6 7 -10 16 -10 8 0 13
-4 9 -9 -3 -6 6 -8 21 -5 15 3 23 1 20 -5 -4 -5 8 -12 24 -16 17 -4 36 -15 43
-26 6 -10 21 -20 32 -20 24 -2 -49 -18 -83 -18 -15 -1 -21 3 -16 11 4 7 3 8
-5 4 -25 -16 3 -28 50 -23 42 5 47 4 43 -11 -5 -16 -5 -16 5 0 6 9 19 15 28
13 62 -12 73 -17 68 -25 -3 -5 0 -12 6 -16 8 -4 9 -3 5 4 -4 7 -1 12 9 12 9 0
13 -4 10 -10 -6 -10 -3 -11 70 -12 41 -1 78 10 44 13 -56 5 -87 11 -125 28
-24 11 -44 17 -44 14 0 -3 -18 17 -40 43 -42 51 -63 103 -53 132 4 15 3 15 -6
2 -9 -12 -11 -10 -11 10 0 15 5 31 11 37 8 8 7 13 -2 18 -8 6 -10 4 -4 -5 5
-8 4 -11 -3 -7 -5 4 -8 16 -5 27 5 17 8 18 22 8 14 -12 14 -11 2 5 -7 9 -10
17 -6 17 4 0 1 8 -6 17 -9 10 -9 14 -2 10 11 -7 24 8 35 38 1 6 6 9 9 8 3 -1
6 5 6 13 0 8 -4 14 -9 14 -4 0 -8 -4 -8 -9 0 -5 -7 -11 -15 -15 -13 -5 -14 -2
-1 22 8 15 24 37 36 50 13 13 19 30 16 39 -5 13 -4 14 8 4 13 -11 15 -9 11 8
-2 13 6 29 26 46 17 14 25 25 19 25 -6 0 -8 5 -5 10 9 14 2 12 -21 -5z m-83
-489 c-1 -3 14 -20 31 -36 l33 -31 -37 21 c-24 14 -36 28 -35 40 1 11 3 17 5
15 2 -2 3 -6 3 -9z"/>
<path d="M4490 2101 c0 -6 4 -13 10 -16 6 -3 7 1 4 9 -7 18 -14 21 -14 7z"/>
<path d="M4518 2103 c7 -3 16 -2 19 1 4 3 -2 6 -13 5 -11 0 -14 -3 -6 -6z"/>
<path d="M4635 2100 c-3 -6 1 -7 9 -4 18 7 21 14 7 14 -6 0 -13 -4 -16 -10z"/>
<path d="M4598 2093 c7 -3 16 -2 19 1 4 3 -2 6 -13 5 -11 0 -14 -3 -6 -6z"/>
<path d="M309 2075 c40 -18 38 -18 44 -2 3 9 -7 14 -37 15 l-41 2 34 -15z"/>
<path d="M370 2086 c0 -3 14 -14 30 -26 27 -19 30 -20 30 -4 0 10 -3 14 -7 11
-3 -4 -17 0 -30 8 -13 9 -23 13 -23 11z"/>
<path d="M940 2065 c0 -8 -4 -23 -9 -33 -10 -18 -24 -67 -25 -92 -1 -17 24
-50 37 -50 5 0 -1 16 -13 36 -21 34 -22 35 -4 40 15 4 19 16 21 60 1 30 0 54
-2 54 -3 0 -5 -7 -5 -15z"/>
<path d="M1690 2071 c0 -6 4 -13 10 -16 6 -3 7 1 4 9 -7 18 -14 21 -14 7z"/>
<path d="M3869 2063 c-13 -16 -12 -17 4 -4 16 13 21 21 13 21 -2 0 -10 -8 -17
-17z"/>
<path d="M4720 2061 c-7 -15 -7 -22 2 -27 7 -4 10 -4 6 1 -4 4 -3 16 3 26 5
11 7 19 5 19 -3 0 -10 -9 -16 -19z"/>
<path d="M607 2030 c3 -11 9 -22 13 -25 5 -3 6 4 3 15 -3 11 -9 22 -13 25 -5
3 -6 -4 -3 -15z"/>
<path d="M4063 2043 c9 -2 23 -2 30 0 6 3 -1 5 -18 5 -16 0 -22 -2 -12 -5z"/>
<path d="M990 2033 c0 -6 8 -17 18 -24 16 -13 16 -13 2 6 -8 11 -16 22 -17 24
-2 2 -3 0 -3 -6z"/>
<path d="M709 2008 c-11 -8 -11 -9 2 -5 9 3 22 0 28 -6 8 -8 11 -8 11 0 0 16
-25 23 -41 11z"/>
<path d="M1567 2003 c3 -7 9 -10 14 -7 14 8 11 21 -5 21 -8 0 -12 -6 -9 -14z"/>
<path d="M3873 2013 c-7 -3 -13 -9 -13 -14 0 -4 6 -6 14 -3 8 3 25 -2 39 -11
34 -22 64 -26 64 -9 0 8 -6 13 -14 10 -7 -3 -28 3 -45 13 -18 10 -39 17 -45
14z"/>
<path d="M1700 2006 c0 -2 8 -10 18 -17 15 -13 16 -12 3 4 -13 16 -21 21 -21
13z"/>
<path d="M646 1987 c3 -10 9 -15 12 -12 3 3 0 11 -7 18 -10 9 -11 8 -5 -6z"/>
<path d="M3712 1990 c-38 -16 -101 -71 -96 -85 3 -7 -2 -34 -10 -61 -22 -67
-25 -97 -14 -111 6 -7 8 -26 6 -43 -3 -16 -1 -30 4 -30 4 0 7 -3 6 -7 -1 -5 4
-20 10 -35 6 -15 9 -36 6 -45 -5 -15 -4 -16 5 -3 9 13 11 12 12 -5 1 -11 2
-26 2 -32 -1 -7 3 -11 7 -8 8 5 24 -24 21 -38 -1 -5 3 -6 8 -3 5 3 25 -19 45
-49 20 -30 40 -54 44 -54 20 3 25 -2 12 -12 -12 -8 -11 -9 6 -4 13 3 28 0 37
-10 9 -8 20 -15 25 -15 5 0 15 -7 22 -15 7 -9 19 -14 25 -11 7 2 18 0 26 -6
11 -7 9 -8 -6 -3 -16 5 -17 4 -8 -6 9 -9 16 -9 25 -1 9 6 44 8 102 3 65 -5 89
-4 93 5 12 31 108 50 124 25 9 -14 10 -14 5 2 -5 16 -1 17 32 11 20 -4 34 -4
31 0 -12 13 -97 23 -115 13 -16 -8 -17 -7 -7 4 8 7 30 12 52 11 22 -2 42 2 46
8 4 6 -1 8 -12 4 -17 -5 -17 -5 0 9 11 9 26 13 35 10 10 -4 13 -2 8 5 -4 7 -1
12 9 12 10 0 13 5 9 11 -5 8 1 10 19 7 16 -3 24 -1 20 5 -4 6 2 8 15 5 12 -3
26 0 32 7 9 11 5 13 -22 9 -32 -4 -32 -4 -13 11 11 9 19 20 18 25 -4 14 116
110 162 131 22 10 33 19 25 19 -20 1 50 38 86 45 78 16 92 16 126 2 20 -9 43
-26 52 -39 18 -28 11 -68 -13 -69 -12 0 -13 -2 -2 -6 17 -7 41 23 41 51 0 23
-53 89 -64 79 -3 -3 -6 -1 -6 5 0 6 -7 9 -17 5 -9 -4 -14 -2 -10 3 10 17 -105
-2 -159 -25 -27 -12 -67 -36 -89 -53 -30 -24 -35 -26 -20 -8 17 20 18 22 3 17
-11 -4 -21 0 -28 11 -8 13 -9 10 -5 -15 4 -27 3 -31 -12 -26 -11 4 -14 3 -9
-5 4 -7 2 -12 -3 -12 -6 0 -11 -6 -11 -13 0 -7 -33 -44 -72 -82 -119 -115
-147 -139 -154 -132 -4 4 4 16 19 27 14 11 43 53 65 93 22 40 48 79 56 86 9 8
15 25 15 40 -1 14 3 38 9 52 8 20 7 26 -3 26 -7 0 -11 -7 -8 -14 3 -8 -3 -23
-12 -33 -11 -12 -13 -20 -7 -20 19 0 14 -32 -8 -55 -10 -11 -33 -45 -51 -75
-17 -30 -28 -47 -25 -36 18 56 28 109 24 131 -5 22 -3 24 11 13 13 -10 12 -8
-1 8 -10 11 -21 42 -24 67 -4 26 -10 47 -14 47 -3 0 -14 15 -22 34 -13 26 -14
37 -5 47 10 11 9 11 -4 1 -12 -9 -18 -9 -27 0 -18 18 -42 19 -35 1 5 -12 7
-12 14 -1 7 10 9 10 10 -2 1 -8 0 -22 -1 -30 -1 -8 1 -12 6 -8 7 8 14 0 50
-57 17 -27 17 -29 1 -16 -15 12 -20 12 -30 1 -9 -10 -9 -11 1 -6 7 5 12 1 12
-9 0 -9 5 -13 10 -10 6 3 10 -1 10 -10 0 -10 -5 -13 -12 -9 -9 6 -9 3 0 -9 8
-9 11 -21 7 -27 -4 -6 -1 -9 6 -8 6 2 15 -9 20 -25 4 -15 3 -25 -1 -22 -5 3
-11 1 -15 -5 -3 -5 -1 -10 4 -10 6 0 11 -9 11 -20 0 -11 -5 -20 -11 -20 -6 0
-9 -6 -6 -13 8 -20 -26 -88 -59 -119 -50 -46 -119 -71 -206 -72 -43 -1 -78 2
-78 5 0 4 -14 9 -31 13 -20 4 -28 10 -23 17 4 8 3 9 -4 5 -14 -9 -45 7 -99 52
-50 40 -58 66 -10 29 23 -17 34 -21 34 -12 0 8 -4 12 -9 9 -4 -3 -8 0 -8 5 0
6 -7 11 -16 11 -9 0 -12 5 -8 12 4 6 3 8 -4 4 -6 -3 -13 2 -17 13 -3 11 -12
22 -20 25 -13 4 -12 1 1 -19 9 -14 12 -25 7 -25 -5 0 -23 24 -40 53 -33 54
-56 107 -47 107 2 0 0 8 -5 19 -26 47 -30 146 -10 218 16 60 64 111 115 121
46 10 105 -4 112 -28 4 -12 2 -13 -9 -4 -19 16 -86 11 -101 -6 -11 -13 -11
-13 2 -2 17 14 34 16 25 2 -4 -6 3 -6 21 0 20 8 32 7 50 -5 23 -15 24 -14 24
9 0 14 -9 32 -22 40 -24 17 -90 20 -126 6z m578 -340 c0 -5 -2 -10 -4 -10 -3
0 -8 5 -11 10 -3 6 -1 10 4 10 6 0 11 -4 11 -10z"/>
<path d="M4080 1991 c-8 -6 -19 -7 -25 -3 -5 3 -4 -2 4 -11 7 -9 26 -17 41
-17 24 0 27 -3 22 -25 -2 -14 -8 -22 -13 -19 -5 3 -9 3 -9 1 0 -11 57 -41 75
-39 10 0 26 -4 34 -11 12 -9 13 -9 7 1 -5 8 -1 12 11 13 11 0 13 3 5 6 -6 2
-9 9 -6 15 4 7 0 7 -12 0 -11 -5 -30 -8 -44 -7 -14 2 -28 4 -32 4 -5 1 -8 12
-8 25 0 27 16 36 68 36 31 1 34 2 19 11 -11 7 -41 8 -78 4 -61 -7 -76 -1 -36
15 12 5 15 9 7 9 -8 0 -22 -3 -30 -8z"/>
<path d="M1055 1965 l-30 -26 36 20 c26 13 41 16 55 9 18 -9 18 -9 0 6 -25 20
-26 20 -61 -9z"/>
<path d="M365 1971 c-3 -5 -2 -12 3 -15 5 -3 9 1 9 9 0 17 -3 19 -12 6z"/>
<path d="M1193 1970 c-13 -5 -23 -7 -23 -5 0 3 -15 -12 -33 -32 -25 -27 -36
-33 -42 -23 -6 9 -4 11 5 5 9 -6 11 -4 5 5 -6 9 -4 11 5 5 9 -6 11 -4 5 5 -5
8 -4 11 2 7 6 -4 17 1 24 11 12 15 12 16 -2 5 -9 -7 -18 -11 -21 -8 -3 3 -11
-1 -18 -10 -7 -8 -19 -15 -26 -15 -8 0 -14 -7 -14 -15 0 -8 -4 -15 -10 -15 -5
0 -10 -5 -10 -12 0 -6 11 -1 24 11 17 16 25 19 28 9 7 -18 -12 -57 -26 -54 -6
2 -8 1 -3 -1 10 -7 9 -31 -3 -35 -9 -3 0 -87 17 -142 4 -13 2 -16 -7 -11 -9 5
-11 4 -6 -4 4 -6 12 -8 18 -5 7 5 9 1 5 -9 -10 -27 51 -79 114 -99 31 -10 62
-18 70 -17 8 0 -5 6 -28 13 -68 22 -110 53 -131 99 -24 51 -36 111 -21 101 6
-3 5 3 -3 15 -11 18 -10 26 4 52 10 17 12 27 5 23 -8 -5 -7 -2 2 9 7 9 18 14
25 10 6 -4 5 1 -2 10 -12 14 -11 20 5 41 23 32 84 66 116 66 48 0 78 -59 34
-66 -11 -1 -22 -5 -25 -8 -8 -9 30 -2 46 7 18 12 15 44 -8 67 -21 21 -60 25
-97 10z"/>
<path d="M1565 1934 c0 -30 3 -40 11 -33 20 16 23 67 5 72 -13 3 -16 -5 -16
-39z"/>
<path d="M4296 1958 c3 -5 10 -6 15 -3 13 9 11 12 -6 12 -8 0 -12 -4 -9 -9z"/>
<path d="M4635 1944 c-11 -13 -32 -31 -47 -39 -16 -9 -28 -20 -28 -24 0 -17
56 18 79 49 27 38 24 49 -4 14z"/>
<path d="M400 1951 c0 -6 4 -13 10 -16 6 -3 7 1 4 9 -7 18 -14 21 -14 7z"/>
<path d="M750 1945 c0 -8 4 -15 10 -15 5 0 7 7 4 15 -4 8 -8 15 -10 15 -2 0
-4 -7 -4 -15z"/>
<path d="M1713 1945 c0 -8 4 -12 8 -9 4 2 10 0 14 -6 3 -5 11 -10 16 -10 14 0
2 18 -20 29 -13 7 -18 6 -18 -4z"/>
<path d="M1630 1935 c0 -5 5 -17 10 -25 5 -8 10 -10 10 -5 0 6 -5 17 -10 25
-5 8 -10 11 -10 5z"/>
<path d="M3679 1916 c-9 -19 -8 -31 5 -57 11 -22 13 -35 6 -39 -7 -5 -7 -10 2
-18 11 -8 14 -6 16 13 1 13 -3 27 -8 30 -15 9 -12 37 3 30 6 -4 4 0 -6 8 -15
13 -16 19 -7 36 6 12 8 21 5 21 -3 0 -10 -11 -16 -24z"/>
<path d="M4030 1921 c-25 -7 -25 -7 -3 -13 12 -3 35 -27 50 -52 19 -31 34 -46
48 -45 20 0 20 0 0 9 -11 4 -29 24 -40 44 -11 20 -24 36 -28 36 -5 0 -7 7 -3
15 3 8 4 15 3 14 -1 -1 -13 -4 -27 -8z"/>
<path d="M4278 1914 c-16 -8 -28 -17 -28 -20 0 -2 9 0 20 6 11 6 24 9 29 6 4
-3 8 1 8 9 0 8 -1 15 -1 15 -1 -1 -13 -8 -28 -16z"/>
<path d="M4690 1918 c0 -7 -12 -24 -26 -39 -21 -22 -23 -27 -8 -25 9 2 25 17
34 34 14 25 20 29 31 19 11 -10 11 -9 0 6 -15 20 -31 22 -31 5z"/>
<path d="M846 1888 c3 -4 9 -8 15 -8 5 0 9 4 9 8 0 5 -7 9 -15 9 -8 0 -12 -4
-9 -9z"/>
<path d="M3589 1883 c-13 -16 -12 -17 4 -4 9 7 17 15 17 17 0 8 -8 3 -21 -13z"/>
<path d="M1210 1866 c-5 -13 -16 -29 -26 -34 -9 -5 -12 -12 -7 -15 13 -8 38
21 46 51 7 29 -1 28 -13 -2z"/>
<path d="M1700 1880 c0 -5 5 -10 11 -10 5 0 7 5 4 10 -3 6 -8 10 -11 10 -2 0
-4 -4 -4 -10z"/>
<path d="M4887 1884 c-11 -12 4 -26 16 -15 7 5 23 11 37 14 19 3 17 5 -11 6
-20 0 -39 -2 -42 -5z"/>
<path d="M3640 1861 c0 -11 -4 -23 -10 -26 -12 -8 -13 -55 -1 -55 4 0 6 12 3
27 -4 20 -2 25 10 21 11 -5 13 1 10 23 -5 33 -12 39 -12 10z"/>
<path d="M4306 1844 c8 -20 13 -43 10 -50 -3 -8 1 -14 9 -14 19 0 19 -21 0
-46 -22 -29 -19 -48 4 -25 24 24 21 88 -6 139 -24 43 -36 41 -17 -4z"/>
<path d="M4835 1869 c-4 -6 -14 -8 -24 -4 -13 5 -14 4 -3 -6 10 -11 15 -10 29
4 10 9 14 17 11 17 -4 0 -10 -5 -13 -11z"/>
<path d="M475 1861 c3 -6 -3 -15 -12 -21 -17 -10 -16 -11 2 -8 21 3 35 38 15
38 -6 0 -9 -4 -5 -9z"/>
<path d="M860 1864 c0 -17 18 -36 30 -32 7 2 4 10 -9 22 -12 11 -21 15 -21 10z"/>
<path d="M4735 1850 c-3 -5 -1 -10 4 -10 6 0 11 5 11 10 0 6 -2 10 -4 10 -3 0
-8 -4 -11 -10z"/>
<path d="M4755 1835 c-16 -13 -27 -27 -24 -29 3 -3 18 8 34 24 35 36 31 38
-10 5z"/>
<path d="M425 1830 c3 -5 8 -10 11 -10 2 0 4 5 4 10 0 6 -5 10 -11 10 -5 0 -7
-4 -4 -10z"/>
<path d="M4625 1829 c-4 -6 -5 -12 -2 -15 2 -3 7 2 10 11 7 17 1 20 -8 4z"/>
<path d="M4854 1832 c4 -6 -1 -11 -11 -11 -76 -1 -204 -61 -280 -131 -3 -3 2
10 11 28 10 18 15 39 12 45 -3 8 -5 6 -6 -3 0 -8 -7 0 -15 18 -8 18 -21 35
-30 38 -21 8 -42 -11 -24 -21 8 -5 10 -4 5 3 -4 7 -1 12 9 12 22 0 46 -59 33
-83 -5 -10 -7 -24 -5 -32 3 -7 0 -18 -6 -25 -15 -17 2 -7 60 32 23 15 46 28
52 28 6 0 11 4 11 10 0 5 7 6 17 3 10 -4 14 -2 10 4 -4 5 5 15 18 21 19 9 25
9 25 -1 0 -6 5 -4 11 6 8 13 18 17 35 13 16 -4 24 -2 24 6 0 9 3 8 10 -2 8
-12 12 -13 19 -2 5 8 22 12 42 10 26 -2 41 -13 66 -46 34 -45 43 -46 18 -2
-21 36 -18 46 7 24 14 -12 18 -14 13 -4 -4 8 3 5 17 -8 13 -12 27 -19 31 -15
23 22 93 -97 76 -129 -15 -28 -41 -23 -33 6 3 13 1 27 -4 30 -6 4 -8 -3 -5
-16 4 -19 3 -20 -6 -8 -9 12 -11 11 -11 -7 0 -16 8 -25 25 -29 31 -8 55 10 55
43 0 31 -35 99 -68 132 -14 14 -21 19 -16 11 5 -9 -1 -5 -13 8 -13 16 -27 23
-37 19 -9 -4 -16 -2 -16 3 0 6 -3 9 -7 9 -24 -4 -43 2 -37 12 4 8 1 8 -12 2
-23 -11 -45 -10 -63 1 -9 6 -12 5 -7 -2z"/>
<path d="M401 1818 c0 -9 4 -20 9 -23 6 -4 7 -12 4 -18 -4 -7 -3 -8 1 -4 12
10 16 39 5 32 -5 -3 -11 3 -13 12 -4 16 -5 16 -6 1z"/>
<path d="M513 1819 c-31 -16 -48 -68 -29 -88 13 -12 18 -12 31 -1 9 7 13 20
10 27 -3 9 0 13 7 11 7 -3 16 -18 20 -34 4 -17 20 -36 38 -46 17 -10 28 -13
25 -8 -3 6 1 10 9 10 8 0 18 5 21 10 4 7 -3 9 -20 6 -35 -6 -55 2 -55 24 0 9
-9 25 -20 35 -20 18 -35 15 -35 -8 0 -7 -4 -14 -10 -16 -16 -7 -17 23 -1 44
21 28 116 27 171 -3 22 -11 34 -21 28 -22 -28 -1 -11 -20 27 -31 23 -7 36 -15
29 -19 -6 -4 1 -10 18 -13 53 -10 44 11 -24 55 -37 25 -78 50 -89 56 -33 17
-126 23 -151 11z"/>
<path d="M860 1811 c0 -6 4 -13 10 -16 6 -3 7 1 4 9 -7 18 -14 21 -14 7z"/>
<path d="M1556 1795 c-11 -8 -15 -15 -9 -15 6 0 16 7 23 15 16 19 11 19 -14 0z"/>
<path d="M1719 1808 c-1 -2 -2 -39 -3 -83 -2 -71 -1 -76 9 -45 8 23 9 48 3 73
-5 21 -6 42 -3 48 4 5 4 9 1 9 -3 0 -6 -1 -7 -2z"/>
<path d="M3552 1790 c-7 -11 -12 -25 -12 -32 0 -6 -8 -21 -17 -32 -14 -15 -10
-14 13 4 18 15 27 28 21 32 -7 4 -6 12 3 22 7 9 11 18 9 21 -3 2 -10 -5 -17
-15z"/>
<path d="M1099 1798 c-7 -25 -7 -48 0 -48 15 0 23 18 11 25 -6 4 -8 11 -5 16
4 5 4 9 1 9 -3 0 -6 -1 -7 -2z"/>
<path d="M4150 1793 c0 -5 18 -16 40 -25 49 -20 51 -16 6 11 -36 22 -46 25
-46 14z"/>
<path d="M4666 1783 c-4 -11 -1 -11 14 -3 24 13 25 17 5 17 -8 0 -16 -6 -19
-14z"/>
<path d="M1139 1773 c-13 -16 -12 -17 4 -4 9 7 17 15 17 17 0 8 -8 3 -21 -13z"/>
<path d="M3990 1777 c-31 -15 -36 -68 -7 -73 9 -1 15 2 11 7 -3 5 -10 7 -15 4
-5 -4 -9 3 -9 15 0 28 38 42 83 29 55 -15 97 -64 114 -134 10 -44 11 -65 1
-59 -7 4 -7 0 0 -12 11 -23 7 -57 -13 -97 -8 -16 -12 -34 -8 -40 3 -5 1 -7 -4
-4 -6 4 -18 -2 -27 -12 -10 -11 -31 -25 -47 -31 -16 -7 -28 -15 -25 -17 2 -2
21 3 42 12 51 21 94 63 87 83 -5 11 -3 13 7 7 8 -5 11 -4 6 3 -4 6 -4 23 0 37
4 16 10 22 13 16 4 -6 7 14 7 44 -1 30 -4 55 -8 55 -3 0 -5 14 -4 31 1 16 -2
33 -7 36 -6 4 -7 0 -2 -8 14 -25 -3 -5 -28 32 -16 24 -20 36 -11 36 7 0 10 -5
7 -10 -4 -6 -1 -7 7 -2 9 6 11 4 5 -6 -5 -8 -4 -11 0 -6 5 4 19 -3 32 -14 l23
-22 -13 26 c-12 25 -33 38 -70 41 -10 0 -22 8 -27 16 -5 8 -10 11 -10 5 0 -5
-4 -5 -8 1 -11 18 -74 25 -102 11z"/>
<path d="M3687 1746 c9 -46 18 -50 19 -7 1 25 -4 38 -12 38 -9 0 -11 -10 -7
-31z"/>
<path d="M4281 1764 c0 -11 3 -14 6 -6 3 7 2 16 -1 19 -3 4 -6 -2 -5 -13z"/>
<path d="M4492 1760 c0 -14 2 -19 5 -12 2 6 2 18 0 25 -3 6 -5 1 -5 -13z"/>
<path d="M4768 1773 c7 -3 16 -2 19 1 4 3 -2 6 -13 5 -11 0 -14 -3 -6 -6z"/>
<path d="M4880 1768 c6 -7 6 -16 0 -23 -7 -9 -4 -17 12 -27 27 -17 92 -35 68
-18 -8 5 -22 10 -31 10 -15 0 -30 20 -33 42 -1 4 -7 12 -13 18 -10 7 -10 7 -3
-2z"/>
<path d="M1006 1757 c3 -10 9 -15 12 -12 3 3 0 11 -7 18 -10 9 -11 8 -5 -6z"/>
<path d="M3627 1763 c-4 -3 -7 -13 -7 -22 1 -13 3 -13 11 2 11 19 8 33 -4 20z"/>
<path d="M1518 1753 c6 -2 18 -2 25 0 6 3 1 5 -13 5 -14 0 -19 -2 -12 -5z"/>
<path d="M4780 1756 c0 -2 9 -6 20 -9 11 -3 18 -1 14 4 -5 9 -34 13 -34 5z"/>
<path d="M4830 1750 c0 -5 5 -10 11 -10 5 0 7 5 4 10 -3 6 -8 10 -11 10 -2 0
-4 -4 -4 -10z"/>
<path d="M658 1743 c7 -3 16 -2 19 1 4 3 -2 6 -13 5 -11 0 -14 -3 -6 -6z"/>
<path d="M1550 1721 c-19 -16 -44 -31 -55 -34 -18 -4 -18 -5 3 -6 13 -1 38 14
60 34 45 42 40 45 -8 6z"/>
<path d="M1477 1733 c-9 -8 12 -33 27 -33 6 0 3 5 -8 11 -15 9 -16 13 -5 20 8
5 9 9 3 9 -6 0 -14 -3 -17 -7z"/>
<path d="M3655 1720 c10 -11 20 -20 23 -20 3 0 -3 9 -13 20 -10 11 -20 20 -23
20 -3 0 3 -9 13 -20z"/>
<path d="M4021 1725 c9 -11 20 -34 23 -51 4 -17 19 -42 34 -55 14 -13 20 -16
13 -6 -7 9 -11 17 -7 17 3 0 -3 9 -14 20 -11 11 -20 28 -20 38 0 11 -10 27
-22 38 -23 19 -23 19 -7 -1z"/>
<path d="M1012 1700 c0 -14 2 -19 5 -12 2 6 2 18 0 25 -3 6 -5 1 -5 -13z"/>
<path d="M1052 1700 c0 -14 2 -19 5 -12 2 6 2 18 0 25 -3 6 -5 1 -5 -13z"/>
<path d="M680 1689 c-30 -10 -44 -17 -30 -14 14 3 32 5 41 5 8 0 24 7 35 15
23 18 22 18 -46 -6z"/>
<path d="M4466 1698 c-19 -62 -29 -84 -56 -125 -27 -41 -27 -43 -5 -18 33 38
56 81 66 123 7 30 3 46 -5 20z"/>
<path d="M3571 1687 c-1 -11 -6 -15 -13 -11 -7 5 -8 3 -3 -5 10 -16 29 2 22
21 -4 8 -6 7 -6 -5z"/>
<path d="M5002 1680 c7 -11 16 -20 20 -20 5 0 3 9 -4 20 -7 11 -16 20 -20 20
-5 0 -3 -9 4 -20z"/>
<path d="M1313 1675 c2 -5 15 -11 28 -11 13 -1 32 -5 42 -9 13 -5 16 -3 11 8
-6 17 -86 29 -81 12z"/>
<path d="M1417 1673 c20 -15 37 -17 28 -4 -3 5 3 11 12 14 10 2 1 4 -20 3 -32
-1 -35 -3 -20 -13z"/>
<path d="M4324 1668 l-19 -23 23 19 c21 18 27 26 19 26 -2 0 -12 -10 -23 -22z"/>
<path d="M4757 1673 c-13 -21 2 -33 36 -32 29 2 30 2 5 6 -15 2 -28 12 -30 21
-3 13 -6 14 -11 5z"/>
<path d="M810 1650 c0 -6 7 -10 15 -10 8 0 15 2 15 4 0 2 -7 6 -15 10 -8 3
-15 1 -15 -4z"/>
<path d="M4200 1644 c0 -5 7 -18 15 -28 8 -11 15 -16 15 -10 0 5 -7 18 -15 28
-8 11 -15 16 -15 10z"/>
<path d="M3670 1636 c0 -2 8 -10 18 -17 15 -13 16 -12 3 4 -13 16 -21 21 -21
13z"/>
<path d="M4588 1620 c-40 -19 -155 -96 -163 -109 -3 -6 15 -7 45 -4 41 4 55 2
72 -13 12 -11 18 -14 15 -7 -4 6 -1 13 5 16 7 3 -12 8 -42 12 l-55 8 35 12
c19 7 43 11 53 9 9 -1 17 2 17 7 0 5 -6 9 -13 7 -7 -2 -14 0 -15 5 -1 4 0 6 3
5 2 -2 10 4 17 13 29 37 127 50 166 23 25 -17 32 -67 7 -58 -8 4 -12 11 -8 17
4 6 1 7 -7 2 -10 -6 -9 -11 5 -21 14 -10 22 -11 32 -3 20 17 16 47 -12 75 -21
21 -33 25 -74 23 -27 -1 -64 -10 -83 -19z"/>
<path d="M4832 1620 c0 -14 2 -19 5 -12 2 6 2 18 0 25 -3 6 -5 1 -5 -13z"/>
<path d="M3552 1576 c-4 -58 6 -103 22 -103 12 0 12 4 -1 23 -10 16 -13 36 -9
68 4 24 3 47 -1 49 -5 3 -9 -14 -11 -37z"/>
<path d="M1050 1601 c0 -6 4 -13 10 -16 6 -3 7 1 4 9 -7 18 -14 21 -14 7z"/>
<path d="M640 1592 c0 -4 21 -8 47 -10 26 -2 52 -7 58 -11 10 -8 81 6 73 14
-2 3 -19 0 -37 -5 -26 -7 -31 -7 -22 4 9 10 -2 13 -54 14 -36 1 -65 -2 -65 -6z"/>
<path d="M4147 1589 c7 -7 15 -10 18 -7 3 3 -2 9 -12 12 -14 6 -15 5 -6 -5z"/>
<path d="M4255 1590 c-4 -6 -10 -8 -14 -5 -5 2 -6 -8 -3 -23 5 -22 7 -24 10
-7 2 11 9 26 14 33 6 6 8 12 5 12 -3 0 -9 -5 -12 -10z"/>
<path d="M856 1574 c-21 -21 -20 -44 2 -43 10 0 12 3 5 6 -22 8 -14 23 20 38
26 12 28 14 10 15 -12 0 -29 -7 -37 -16z"/>
<path d="M4684 1555 c-12 -31 -19 -35 -52 -36 -20 -1 -29 -3 -19 -6 28 -7 19
-24 -10 -18 -27 5 -27 5 -4 -5 18 -8 28 -7 40 3 9 8 23 17 32 20 9 3 19 19 22
35 4 17 14 32 24 35 17 4 17 5 0 6 -12 1 -23 -11 -33 -34z"/>
<path d="M3730 1572 c0 -4 10 -9 22 -9 18 -2 20 0 8 7 -18 12 -30 13 -30 2z"/>
<path d="M918 1563 c7 -3 16 -2 19 1 4 3 -2 6 -13 5 -11 0 -14 -3 -6 -6z"/>
<path d="M955 1560 c-3 -5 -2 -10 4 -10 5 0 13 5 16 10 3 6 2 10 -4 10 -5 0
-13 -4 -16 -10z"/>
<path d="M4129 1537 c6 -15 6 -37 1 -54 l-8 -28 -1 31 c-1 49 -60 87 -75 49
-6 -17 5 -20 20 -5 6 6 10 3 11 -10 2 -17 -4 -20 -37 -20 -31 0 -42 -5 -51
-22 -19 -38 -51 -68 -72 -68 -13 0 -17 -5 -13 -15 7 -19 -5 -19 -51 0 -20 8
-38 13 -40 11 -2 -2 17 -12 43 -22 122 -46 258 2 292 104 7 19 7 32 1 32 -5 0
-9 6 -9 14 0 8 -4 18 -10 21 -7 4 -7 -2 -1 -18z m-30 -71 c-10 -37 -57 -78
-82 -72 -9 2 -15 1 -12 -4 2 -4 -16 -7 -42 -7 -43 0 -45 1 -22 13 13 7 32 28
43 48 16 30 26 36 62 42 31 4 44 11 44 23 0 13 2 13 9 2 5 -8 5 -27 0 -45z"/>
<path d="M3706 1535 c4 -8 12 -15 20 -15 8 0 14 -4 14 -10 0 -5 7 -10 16 -10
9 0 14 5 12 11 -2 6 -8 10 -13 10 -6 0 -20 7 -32 15 -20 12 -22 12 -17 -1z"/>
<path d="M3786 1533 c-6 -14 -5 -15 5 -6 7 7 10 15 7 18 -3 3 -9 -2 -12 -12z"/>
<path d="M1511 1514 c0 -11 3 -14 6 -6 3 7 2 16 -1 19 -3 4 -6 -2 -5 -13z"/>
<path d="M4339 1483 l-34 -38 38 34 c20 19 37 36 37 38 0 8 -8 0 -41 -34z"/>
<path d="M1420 1497 c-9 -7 -29 -29 -44 -49 -16 -21 -33 -38 -38 -38 -6 0 -5
7 2 15 7 9 11 18 8 21 -3 2 -13 -7 -22 -21 -15 -23 -15 -25 1 -25 9 0 27 10
40 22 19 18 23 19 23 5 0 -9 4 -18 9 -21 4 -3 6 6 3 20 -3 17 3 33 18 49 25
27 25 41 0 22z"/>
<path d="M3819 1501 c7 -5 10 -14 7 -20 -5 -8 1 -8 19 1 19 9 28 9 33 1 10
-16 74 -1 80 17 2 10 1 11 -5 4 -8 -12 -109 -11 -120 0 -4 3 -11 6 -17 6 -6 0
-5 -4 3 -9z"/>
<path d="M1330 1470 c0 -5 7 -7 15 -4 8 4 15 8 15 10 0 2 -7 4 -15 4 -8 0 -15
-4 -15 -10z"/>
<path d="M1151 1446 l-24 -13 31 1 c16 0 28 4 26 8 -2 3 2 9 8 11 9 4 8 6 -2
6 -8 0 -26 -6 -39 -13z"/>
<path d="M1463 1434 c-11 -23 -10 -23 13 -6 26 19 30 29 11 29 -7 0 -18 -11
-24 -23z"/>
<path d="M3810 1430 c0 -5 5 -10 11 -10 5 0 7 5 4 10 -3 6 -8 10 -11 10 -2 0
-4 -4 -4 -10z"/>
<path d="M1024 1419 c-3 -6 -15 -9 -25 -6 -11 3 -19 1 -19 -3 0 -5 -8 -10 -17
-13 -10 -2 11 -2 47 1 36 2 72 8 80 13 9 5 -2 6 -24 2 -28 -4 -37 -3 -32 5 4
7 5 12 2 12 -3 0 -8 -5 -12 -11z"/>
<path d="M4480 1406 c0 -4 -9 -6 -19 -3 -12 3 -18 0 -15 -7 4 -10 59 -15 59
-6 0 3 43 10 78 12 15 1 27 5 27 9 0 5 -29 7 -65 6 -36 -1 -65 -6 -65 -11z"/>
<path d="M4366 1396 c35 -16 61 -45 28 -32 -14 5 -16 4 -7 -5 17 -17 37 -1 21
18 -11 14 -10 15 12 9 21 -6 22 -5 7 4 -9 6 -22 8 -27 5 -6 -3 -10 -1 -10 4 0
6 -12 11 -27 11 l-28 -1 31 -13z"/>
<path d="M4333 1354 c0 -16 6 -17 25 -5 11 6 9 9 -5 13 -12 3 -20 0 -20 -8z"/>
<path d="M1257 1345 c-4 -8 -21 -18 -39 -23 -21 -5 -34 -15 -35 -28 -2 -10 0
-13 3 -7 3 7 23 17 45 23 28 8 39 16 39 30 0 24 -6 26 -13 5z"/>
<path d="M3755 1330 c10 -41 25 -64 53 -84 l27 -20 -20 25 c-11 13 -26 28 -32
32 -7 4 -13 16 -13 25 0 9 -5 24 -11 32 -8 12 -9 9 -4 -10z"/>
<path d="M3943 1343 c9 -2 23 -2 30 0 6 3 -1 5 -18 5 -16 0 -22 -2 -12 -5z"/>
<path d="M3998 1343 c6 -2 18 -2 25 0 6 3 1 5 -13 5 -14 0 -19 -2 -12 -5z"/>
<path d="M3830 1325 c0 -3 9 -16 21 -28 13 -14 19 -31 17 -49 -5 -33 7 -28 16
8 4 15 2 32 -5 41 -14 16 -49 37 -49 28z"/>
<path d="M3946 1292 c-3 -6 0 -15 8 -21 10 -9 17 -7 27 6 7 10 9 15 5 11 -5
-4 -15 -3 -22 3 -7 6 -14 6 -18 1z"/>
<path d="M4066 1273 c5 -5 12 -12 16 -18 4 -6 8 -2 8 8 0 9 -7 17 -17 17 -9 0
-12 -3 -7 -7z"/>
<path d="M3925 1258 c4 -11 2 -18 -4 -18 -6 0 -11 5 -11 10 0 6 -6 10 -12 10
-7 -1 -2 -10 12 -21 23 -19 25 -20 28 -4 2 9 -1 22 -8 29 -8 8 -10 7 -5 -6z"/>
<path d="M4110 1260 c8 -5 20 -10 25 -10 6 0 3 5 -5 10 -8 5 -19 10 -25 10 -5
0 -3 -5 5 -10z"/>
<path d="M4218 1249 c6 -9 10 -18 7 -21 -3 -2 8 -5 25 -5 16 0 27 4 24 9 -3 4
-13 8 -23 8 -9 0 -23 6 -31 13 -12 10 -12 9 -2 -4z"/>
<path d="M4180 1230 c8 -5 20 -10 25 -10 6 0 3 5 -5 10 -8 5 -19 10 -25 10 -5
0 -3 -5 5 -10z"/>
<path d="M3990 1172 c0 -15 24 -32 46 -32 13 0 26 -4 29 -10 3 -5 11 -10 17
-10 7 0 6 6 -2 15 -7 8 -23 15 -37 15 -13 0 -26 7 -29 15 -6 16 -24 21 -24 7z"/>
</g>
</svg>
